<svg xmlns="http://www.w3.org/2000/svg" xmlns:ns1="http://sozi.baierouge.fr" xmlns:svg="http://www.w3.org/2000/svg" xmlns:xlink="http://www.w3.org/1999/xlink" id="svg2" version="1.0" viewBox="0 0 744.09 400"><defs id="defs4"><linearGradient id="linearGradient3168"><stop id="stop3170" style="stop-color:#f7ec9a" offset="0"/><stop id="stop3176" style="stop-color:#f6ea8d" offset=".134"/><stop id="stop3180" style="stop-color:#f5e98a" offset=".457"/><stop id="stop3178" style="stop-color:#f8ed9d" offset=".809"/><stop id="stop3172" style="stop-color:#f5e98a" offset="1"/></linearGradient><filter id="filter4781"><feGaussianBlur id="feGaussianBlur4783" stdDeviation="5.46"/></filter><linearGradient id="linearGradient4847" x1="461.18" x2="200.96" y1="363.75" y2="608.08" gradientTransform="matrix(.99999 .0042596 -.0042596 .99999 217.41 -314.93)" gradientUnits="userSpaceOnUse" xlink:href="#linearGradient3168"/><linearGradient id="linearGradient4865" x1="461.18" x2="200.96" y1="363.75" y2="608.08" gradientTransform="matrix(.99999 .0042596 -.0042596 .99999 -138.52 -314.93)" gradientUnits="userSpaceOnUse" xlink:href="#linearGradient3168"/></defs><g id="layer1"><rect id="rect4859" style="opacity:.44783;fill-opacity:0" width="336.43" height="314.29" x="29.786" y="33.076"/><path id="path4861" style="opacity:.44783;filter:url(#filter4781);fill:#000" d="m111.75 670.22l291.37-1.42 5.86 284.29s-228.99-3.84-306.48-0.73c7.35-70.31 9.25-282.14 9.25-282.14z" transform="matrix(1.0231 .0042596 -.0043582 .99999 -61.966 -626.72)"/><path id="path4863" style="fill:url(#linearGradient4865)" d="m46.41 37.51l304.28 1.297-1.21 284.28s-262.56 5.77-298.49-15.56c-7.501-36.06-4.58-270.02-4.58-270.02z"/><rect id="rect4857" style="opacity:.44783;fill-opacity:0" width="336.43" height="314.29" x="385.71" y="33.076"/><text id="text4785" x="83.508" y="109.633" xml:space="preserve" style="font-size:40px;font-family:Arial;fill:#5a4e0f"><tspan id="tspan4787" x="83.508" style="font-size:14px;fill:#5a4e0f" y="109.633">There is something you should see...</tspan></text><text id="text4789" x="69.242" y="83.242" xml:space="preserve" style="font-size:35.711px;font-family:Arial;fill:#5a4e0f"><tspan id="tspan4791" x="69.242" style="font-size:22.319px;font-weight:700;fill:#5a4e0f" y="83.242">Just a Note</tspan></text><text id="text4797" x="149.355" y="139.001" xml:space="preserve" style="font-size:36.144px;font-family:Arial;fill:#2020ff;text-anchor:end;text-align:end"><tspan id="tspan4799" x="149.355" style="font-size:14.458px;fill:#2020ff;text-anchor:end;font-weight:700;text-align:end" y="139.001">Show Me!!!</tspan></text><path id="path4843" style="opacity:.44783;filter:url(#filter4781);fill:#000" d="m111.75 670.22l291.37-1.42 5.86 284.29s-228.99-3.84-306.48-0.73c7.35-70.31 9.25-282.14 9.25-282.14z" transform="matrix(1.0231 .0042596 -.0043582 .99999 293.96 -626.72)"/><path id="path4845" style="fill:url(#linearGradient4847)" d="m402.34 37.51l304.28 1.297-1.21 284.28s-262.56 5.77-298.49-15.56c-7.5-36.06-4.58-270.02-4.58-270.02z"/><g id="g2444"><g id="g2437"><text id="text4793" x="323.673" y="303.464" xml:space="preserve" style="font-size:28.433px;font-family:Arial;fill:#cab238;text-anchor:end;text-align:end"><tspan id="tspan4795" x="323.673" style="font-size:11.373px;fill:#cab238;text-anchor:end;text-align:end" y="303.464">Dismiss</tspan></text><rect id="rect3330" style="opacity:.44783;fill-opacity:.0044053;fill:#cab238" width="67.5" height="18.75" x="270.25" y="290.38" ry="4.25"/></g></g></g><metadata/></svg>