<?xml version="1.0"?>
<svg xmlns:rdf="http://www.w3.org/1999/02/22-rdf-syntax-ns#" xmlns="http://www.w3.org/2000/svg" xmlns:cc="http://creativecommons.org/ns#" xmlns:xlink="http://www.w3.org/1999/xlink" xmlns:dc="http://purl.org/dc/elements/1.1/" xmlns:svg="http://www.w3.org/2000/svg" id="svg2" viewBox="0 0 273.2 287.62" version="1.1">
  <defs id="defs4">
    <filter id="filter6773" color-interpolation-filters="sRGB">
      <feGaussianBlur id="feGaussianBlur6775" stdDeviation="2.6663444"/>
    </filter>
    <linearGradient id="linearGradient3867">
      <stop id="stop3869" stop-color="#b3b3b3" offset="0"/>
      <stop id="stop3875" stop-color="#fffcfc" offset=".5"/>
      <stop id="stop3871" stop-color="#bbb" offset="1"/>
    </linearGradient>
    <linearGradient id="linearGradient4157" y2="256.29" xlink:href="#linearGradient3867" gradientUnits="userSpaceOnUse" x2="215.78" gradientTransform="translate(9.616 78.48)" y1="256.29" x1="202.01"/>
    <linearGradient id="linearGradient4159" y2="256.29" xlink:href="#linearGradient3867" gradientUnits="userSpaceOnUse" x2="215.78" gradientTransform="translate(226.4 78.48)" y1="256.29" x1="202.01"/>
    <linearGradient id="linearGradient4161" y2="256.29" xlink:href="#linearGradient3867" gradientUnits="userSpaceOnUse" x2="215.78" gradientTransform="translate(202.31 78.48)" y1="256.29" x1="202.01"/>
    <linearGradient id="linearGradient4163" y2="256.29" xlink:href="#linearGradient3867" gradientUnits="userSpaceOnUse" x2="215.78" gradientTransform="translate(178.23 78.48)" y1="256.29" x1="202.01"/>
    <linearGradient id="linearGradient4165" y2="256.29" xlink:href="#linearGradient3867" gradientUnits="userSpaceOnUse" x2="215.78" gradientTransform="translate(154.14 78.48)" y1="256.29" x1="202.01"/>
    <linearGradient id="linearGradient4167" y2="256.29" xlink:href="#linearGradient3867" gradientUnits="userSpaceOnUse" x2="215.78" gradientTransform="translate(130.05 78.48)" y1="256.29" x1="202.01"/>
    <linearGradient id="linearGradient4169" y2="256.29" xlink:href="#linearGradient3867" gradientUnits="userSpaceOnUse" x2="215.78" gradientTransform="translate(105.97 78.48)" y1="256.29" x1="202.01"/>
    <linearGradient id="linearGradient4171" y2="256.29" xlink:href="#linearGradient3867" gradientUnits="userSpaceOnUse" x2="215.78" gradientTransform="translate(81.878 78.48)" y1="256.29" x1="202.01"/>
    <linearGradient id="linearGradient4173" y2="256.29" xlink:href="#linearGradient3867" gradientUnits="userSpaceOnUse" x2="215.78" gradientTransform="translate(57.791 78.48)" y1="256.29" x1="202.01"/>
    <linearGradient id="linearGradient4175" y2="256.29" xlink:href="#linearGradient3867" gradientUnits="userSpaceOnUse" x2="215.78" gradientTransform="translate(33.703 78.48)" y1="256.29" x1="202.01"/>
  </defs>
  <g id="layer1" transform="translate(-14.839 -328.55)">
    <flowRoot id="flowRoot6694" style="word-spacing:0px;letter-spacing:0px" line-height="125%" xml:space="preserve" font-size="40px" transform="translate(-177.57 19.544)" font-family="Courier 10 Pitch" fill="#000000">
      <flowRegion id="flowRegion6696">
        <rect id="rect6698" y="360.93" width="238.57" height="218.57" x="208.57"/>
      </flowRegion>
      <flowPara id="flowPara6700"/>
    </flowRoot>
    <g id="g4112">
      <g id="g6733" opacity=".319" filter="url(#filter6773)" transform="translate(-177.57 19.544)">
        <g id="g6735">
          <path id="path6737" stroke="#000" d="m211.58 334.01c-4.7486 0-8.5625 3.8139-8.5625 8.5625v238.56c0 4.7486 3.8139 8.5938 8.5625 8.5938h238.56c4.7486 0 8.5625-3.8452 8.5625-8.5938v-238.56c0-4.7486-3.8139-8.5625-8.5625-8.5625h-238.56zm11.219 10.281c3.717 0 6.7188 3.033 6.7188 6.75s-3.0017 6.7188-6.7188 6.7188c-3.717 0-6.7188-3.0017-6.7188-6.7188 0-3.717 3.0017-6.75 6.7188-6.75zm24.25 0c3.717 0 6.7188 3.033 6.7188 6.75s-3.0017 6.7188-6.7188 6.7188c-3.717 0-6.75-3.0017-6.75-6.7188 0-3.717 3.033-6.75 6.75-6.75zm23.719 0c3.717 0 6.75 3.033 6.75 6.75s-3.033 6.7188-6.75 6.7188-6.7188-3.0017-6.7188-6.7188c0-3.717 3.0017-6.75 6.7188-6.75zm23.781 0c3.717 0 6.7188 3.033 6.7188 6.75s-3.0017 6.7188-6.7188 6.7188c-3.717 0-6.7188-3.0017-6.7188-6.7188 0-3.717 3.0017-6.75 6.7188-6.75zm23.906 0c3.717 0 6.75 3.033 6.75 6.75s-3.033 6.7188-6.75 6.7188-6.7188-3.0017-6.7188-6.7188c0-3.717 3.0017-6.75 6.7188-6.75zm24.062 0c3.717 0 6.7188 3.033 6.7188 6.75s-3.0017 6.7188-6.7188 6.7188c-3.717 0-6.75-3.0017-6.75-6.7188 0-3.717 3.033-6.75 6.75-6.75zm24.188 0c3.717 0 6.75 3.033 6.75 6.75s-3.033 6.7188-6.75 6.7188-6.7188-3.0017-6.7188-6.7188c0-3.717 3.0017-6.75 6.7188-6.75zm24.281 0c3.717 0 6.75 3.033 6.75 6.75s-3.033 6.7188-6.75 6.7188-6.7188-3.0017-6.7188-6.7188c0-3.717 3.0017-6.75 6.7188-6.75zm23.688 0c3.717 0 6.7188 3.033 6.7188 6.75s-3.0017 6.7188-6.7188 6.7188c-3.717 0-6.75-3.0017-6.75-6.7188 0-3.717 3.033-6.75 6.75-6.75zm23.781 0c3.717 0 6.75 3.033 6.75 6.75s-3.033 6.7188-6.75 6.7188-6.7188-3.0017-6.7188-6.7188c0-3.717 3.0017-6.75 6.7188-6.75z"/>
          <path id="path6739" stroke="#b3b3b3" d="m210.15 333.29c-4.7486 0-8.5625 3.8139-8.5625 8.5625v238.56c0 4.7486 3.8139 8.5938 8.5625 8.5938h238.56c4.7486 0 8.5625-3.8452 8.5625-8.5938v-238.56c0-4.7486-3.8139-8.5625-8.5625-8.5625h-238.56zm11.219 10.281c3.717 0 6.7188 3.033 6.7188 6.75s-3.0017 6.7188-6.7188 6.7188c-3.717 0-6.7188-3.0017-6.7188-6.7188 0-3.717 3.0017-6.75 6.7188-6.75zm24.25 0c3.717 0 6.7188 3.033 6.7188 6.75s-3.0017 6.7188-6.7188 6.7188c-3.717 0-6.75-3.0017-6.75-6.7188 0-3.717 3.033-6.75 6.75-6.75zm23.719 0c3.717 0 6.75 3.033 6.75 6.75s-3.033 6.7188-6.75 6.7188-6.7188-3.0017-6.7188-6.7188c0-3.717 3.0017-6.75 6.7188-6.75zm23.781 0c3.717 0 6.7188 3.033 6.7188 6.75s-3.0017 6.7188-6.7188 6.7188c-3.717 0-6.7188-3.0017-6.7188-6.7188 0-3.717 3.0017-6.75 6.7188-6.75zm23.906 0c3.717 0 6.75 3.033 6.75 6.75s-3.033 6.7188-6.75 6.7188-6.7188-3.0017-6.7188-6.7188c0-3.717 3.0017-6.75 6.7188-6.75zm24.062 0c3.717 0 6.7188 3.033 6.7188 6.75s-3.0017 6.7188-6.7188 6.7188c-3.717 0-6.75-3.0017-6.75-6.7188 0-3.717 3.033-6.75 6.75-6.75zm24.188 0c3.717 0 6.75 3.033 6.75 6.75s-3.033 6.7188-6.75 6.7188-6.7188-3.0017-6.7188-6.7188c0-3.717 3.0017-6.75 6.7188-6.75zm24.281 0c3.717 0 6.75 3.033 6.75 6.75s-3.033 6.7188-6.75 6.7188-6.7188-3.0017-6.7188-6.7188c0-3.717 3.0017-6.75 6.7188-6.75zm23.688 0c3.717 0 6.7188 3.033 6.7188 6.75s-3.0017 6.7188-6.7188 6.7188c-3.717 0-6.75-3.0017-6.75-6.7188 0-3.717 3.033-6.75 6.75-6.75zm23.781 0c3.717 0 6.75 3.033 6.75 6.75s-3.033 6.7188-6.75 6.7188-6.7188-3.0017-6.7188-6.7188c0-3.717 3.0017-6.75 6.7188-6.75z"/>
          <path id="path6741" stroke="#999" d="m209.44 331.87c-4.7486 0-8.5625 3.8139-8.5625 8.5625v238.56c0 4.7486 3.8139 8.5938 8.5625 8.5938h238.56c4.7486 0 8.5625-3.8452 8.5625-8.5938v-238.56c0-4.7486-3.8139-8.5625-8.5625-8.5625h-238.56zm11.219 10.281c3.717 0 6.7188 3.033 6.7188 6.75s-3.0017 6.7188-6.7188 6.7188c-3.717 0-6.7188-3.0017-6.7188-6.7188 0-3.717 3.0017-6.75 6.7188-6.75zm24.25 0c3.717 0 6.7188 3.033 6.7188 6.75s-3.0017 6.7188-6.7188 6.7188c-3.717 0-6.75-3.0017-6.75-6.7188 0-3.717 3.033-6.75 6.75-6.75zm23.719 0c3.717 0 6.75 3.033 6.75 6.75s-3.033 6.7188-6.75 6.7188-6.7188-3.0017-6.7188-6.7188c0-3.717 3.0017-6.75 6.7188-6.75zm23.781 0c3.717 0 6.7188 3.033 6.7188 6.75s-3.0017 6.7188-6.7188 6.7188c-3.717 0-6.7188-3.0017-6.7188-6.7188 0-3.717 3.0017-6.75 6.7188-6.75zm23.906 0c3.717 0 6.75 3.033 6.75 6.75s-3.033 6.7188-6.75 6.7188-6.7188-3.0017-6.7188-6.7188c0-3.717 3.0017-6.75 6.7188-6.75zm24.062 0c3.717 0 6.7188 3.033 6.7188 6.75s-3.0017 6.7188-6.7188 6.7188c-3.717 0-6.75-3.0017-6.75-6.7188 0-3.717 3.033-6.75 6.75-6.75zm24.188 0c3.717 0 6.75 3.033 6.75 6.75s-3.033 6.7188-6.75 6.7188-6.7188-3.0017-6.7188-6.7188c0-3.717 3.0017-6.75 6.7188-6.75zm24.281 0c3.717 0 6.75 3.033 6.75 6.75s-3.033 6.7188-6.75 6.7188-6.7188-3.0017-6.7188-6.7188c0-3.717 3.0017-6.75 6.7188-6.75zm23.688 0c3.717 0 6.7188 3.033 6.7188 6.75s-3.0017 6.7188-6.7188 6.7188c-3.717 0-6.75-3.0017-6.75-6.7188 0-3.717 3.033-6.75 6.75-6.75zm23.781 0c3.717 0 6.75 3.033 6.75 6.75s-3.033 6.7188-6.75 6.7188-6.7188-3.0017-6.7188-6.7188c0-3.717 3.0017-6.75 6.7188-6.75z"/>
          <path id="path6743" stroke="#000" d="m207.86 331.66c-4.7486 0-8.5625 3.8139-8.5625 8.5625v238.56c0 4.7486 3.8139 8.5938 8.5625 8.5938h238.56c4.7486 0 8.5625-3.8452 8.5625-8.5938v-238.56c0-4.7486-3.8139-8.5625-8.5625-8.5625h-238.56zm11.219 10.281c3.717 0 6.7188 3.033 6.7188 6.75s-3.0017 6.7188-6.7188 6.7188c-3.717 0-6.7188-3.0017-6.7188-6.7188 0-3.717 3.0017-6.75 6.7188-6.75zm24.25 0c3.717 0 6.7188 3.033 6.7188 6.75s-3.0017 6.7188-6.7188 6.7188c-3.717 0-6.75-3.0017-6.75-6.7188 0-3.717 3.033-6.75 6.75-6.75zm23.719 0c3.717 0 6.75 3.033 6.75 6.75s-3.033 6.7188-6.75 6.7188-6.7188-3.0017-6.7188-6.7188c0-3.717 3.0017-6.75 6.7188-6.75zm23.781 0c3.717 0 6.7188 3.033 6.7188 6.75s-3.0017 6.7188-6.7188 6.7188c-3.717 0-6.7188-3.0017-6.7188-6.7188 0-3.717 3.0017-6.75 6.7188-6.75zm23.906 0c3.717 0 6.75 3.033 6.75 6.75s-3.033 6.7188-6.75 6.7188-6.7188-3.0017-6.7188-6.7188c0-3.717 3.0017-6.75 6.7188-6.75zm24.062 0c3.717 0 6.7188 3.033 6.7188 6.75s-3.0017 6.7188-6.7188 6.7188c-3.717 0-6.75-3.0017-6.75-6.7188 0-3.717 3.033-6.75 6.75-6.75zm24.188 0c3.717 0 6.75 3.033 6.75 6.75s-3.033 6.7188-6.75 6.7188-6.7188-3.0017-6.7188-6.7188c0-3.717 3.0017-6.75 6.7188-6.75zm24.281 0c3.717 0 6.75 3.033 6.75 6.75s-3.033 6.7188-6.75 6.7188-6.7188-3.0017-6.7188-6.7188c0-3.717 3.0017-6.75 6.7188-6.75zm23.688 0c3.717 0 6.7188 3.033 6.7188 6.75s-3.0017 6.7188-6.7188 6.7188c-3.717 0-6.75-3.0017-6.75-6.7188 0-3.717 3.033-6.75 6.75-6.75zm23.781 0c3.717 0 6.75 3.033 6.75 6.75s-3.033 6.7188-6.75 6.7188-6.7188-3.0017-6.7188-6.7188c0-3.717 3.0017-6.75 6.7188-6.75z"/>
          <g id="g6745" stroke-linejoin="round" transform="translate(.14793 -.44380)" stroke="#000" stroke-linecap="round" stroke-width=".91317">
            <rect id="rect6747" rx="8.5714" ry="8.5714" height="36.929" width="12.857" y="316.31" x="212.08"/>
            <rect id="rect6749" rx="8.5714" ry="8.5714" height="36.929" width="12.857" y="316.31" x="428.87"/>
            <rect id="rect6751" rx="8.5714" ry="8.5714" height="36.929" width="12.857" y="316.31" x="404.78"/>
            <rect id="rect6753" rx="8.5714" ry="8.5714" height="36.929" width="12.857" y="316.31" x="380.69"/>
            <rect id="rect6755" rx="8.5714" ry="8.5714" height="36.929" width="12.857" y="316.31" x="356.61"/>
            <rect id="rect6757" rx="8.5714" ry="8.5714" height="36.929" width="12.857" y="316.31" x="332.52"/>
            <rect id="rect6759" rx="8.5714" ry="8.5714" height="36.929" width="12.857" y="316.31" x="308.43"/>
            <rect id="rect6761" rx="8.5714" ry="8.5714" height="36.929" width="12.857" y="316.31" x="284.34"/>
            <rect id="rect6763" rx="8.5714" ry="8.5714" height="36.929" width="12.857" y="316.31" x="260.26"/>
            <rect id="rect6765" rx="8.5714" ry="8.5714" height="36.929" width="12.857" y="316.31" x="236.17"/>
          </g>
          <path id="path6767" opacity=".2509" d="m450.03 332.44c2.3213 7.1454 3.5312 14.517 3.5312 22.062 0 64.302-88.246 116.44-197.12 116.44-19.866 0-39.042-1.7406-57.125-4.9688v112.81c0 4.7486 3.8139 8.5938 8.5625 8.5938h238.56c4.7486 0 8.5625-3.8452 8.5625-8.5938v-238.56c0-3.4526-2.043-6.4236-4.9688-7.7812z"/>
        </g>
      </g>
      <path id="path6615" d="m30.977 350.52c-4.7486 0-8.5625 3.8139-8.5625 8.5625v238.56c0 4.7486 3.8139 8.5938 8.5625 8.5938h238.56c4.7486 0 8.5625-3.8452 8.5625-8.5938v-238.56c0-4.7486-3.8139-8.5625-8.5625-8.5625h-238.56zm11.219 10.281c3.717 0 6.7188 3.033 6.7188 6.75s-3.0017 6.7188-6.7188 6.7188c-3.717 0-6.7188-3.0017-6.7188-6.7188 0-3.717 3.0017-6.75 6.7188-6.75zm24.25 0c3.717 0 6.7188 3.033 6.7188 6.75s-3.0017 6.7188-6.7188 6.7188c-3.717 0-6.75-3.0017-6.75-6.7188 0-3.717 3.033-6.75 6.75-6.75zm23.719 0c3.717 0 6.75 3.033 6.75 6.75s-3.033 6.7188-6.75 6.7188-6.7188-3.0017-6.7188-6.7188c0-3.717 3.0017-6.75 6.7188-6.75zm23.781 0c3.717 0 6.7188 3.033 6.7188 6.75s-3.0017 6.7188-6.7188 6.7188c-3.717 0-6.7188-3.0017-6.7188-6.7188 0-3.717 3.0017-6.75 6.7188-6.75zm23.906 0c3.717 0 6.75 3.033 6.75 6.75s-3.033 6.7188-6.75 6.7188-6.7188-3.0017-6.7188-6.7188c0-3.717 3.0017-6.75 6.7188-6.75zm24.062 0c3.717 0 6.7188 3.033 6.7188 6.75s-3.0017 6.7188-6.7188 6.7188c-3.717 0-6.75-3.0017-6.75-6.7188 0-3.717 3.033-6.75 6.75-6.75zm24.188 0c3.717 0 6.75 3.033 6.75 6.75s-3.033 6.7188-6.75 6.7188-6.7188-3.0017-6.7188-6.7188c0-3.717 3.0017-6.75 6.7188-6.75zm24.281 0c3.717 0 6.75 3.033 6.75 6.75s-3.033 6.7188-6.75 6.7188-6.7188-3.0017-6.7188-6.7188c0-3.717 3.0017-6.75 6.7188-6.75zm23.688 0c3.717 0 6.7188 3.033 6.7188 6.75s-3.0017 6.7188-6.7188 6.7188c-3.717 0-6.75-3.0017-6.75-6.7188 0-3.717 3.033-6.75 6.75-6.75zm23.781 0c3.717 0 6.75 3.033 6.75 6.75s-3.033 6.7188-6.75 6.7188-6.7188-3.0017-6.7188-6.7188c0-3.717 3.0017-6.75 6.7188-6.75z" stroke="#445016" fill="#ccc"/>
      <path id="path6613" d="m29.548 349.81c-4.7486 0-8.5625 3.8139-8.5625 8.5625v238.56c0 4.7486 3.8139 8.5938 8.5625 8.5938h238.56c4.7486 0 8.5625-3.8452 8.5625-8.5938v-238.56c0-4.7486-3.8139-8.5625-8.5625-8.5625h-238.56zm11.219 10.281c3.717 0 6.7188 3.033 6.7188 6.75s-3.0017 6.7188-6.7188 6.7188c-3.717 0-6.7188-3.0017-6.7188-6.7188 0-3.717 3.0017-6.75 6.7188-6.75zm24.25 0c3.717 0 6.7188 3.033 6.7188 6.75s-3.0017 6.7188-6.7188 6.7188c-3.717 0-6.75-3.0017-6.75-6.7188 0-3.717 3.033-6.75 6.75-6.75zm23.719 0c3.717 0 6.75 3.033 6.75 6.75s-3.033 6.7188-6.75 6.7188-6.7188-3.0017-6.7188-6.7188c0-3.717 3.0017-6.75 6.7188-6.75zm23.781 0c3.717 0 6.7188 3.033 6.7188 6.75s-3.0017 6.7188-6.7188 6.7188c-3.717 0-6.7188-3.0017-6.7188-6.7188 0-3.717 3.0017-6.75 6.7188-6.75zm23.906 0c3.717 0 6.75 3.033 6.75 6.75s-3.033 6.7188-6.75 6.7188-6.7188-3.0017-6.7188-6.7188c0-3.717 3.0017-6.75 6.7188-6.75zm24.062 0c3.717 0 6.7188 3.033 6.7188 6.75s-3.0017 6.7188-6.7188 6.7188c-3.717 0-6.75-3.0017-6.75-6.7188 0-3.717 3.033-6.75 6.75-6.75zm24.188 0c3.717 0 6.75 3.033 6.75 6.75s-3.033 6.7188-6.75 6.7188-6.7188-3.0017-6.7188-6.7188c0-3.717 3.0017-6.75 6.7188-6.75zm24.281 0c3.717 0 6.75 3.033 6.75 6.75s-3.033 6.7188-6.75 6.7188-6.7188-3.0017-6.7188-6.7188c0-3.717 3.0017-6.75 6.7188-6.75zm23.688 0c3.717 0 6.7188 3.033 6.7188 6.75s-3.0017 6.7188-6.7188 6.7188c-3.717 0-6.75-3.0017-6.75-6.7188 0-3.717 3.033-6.75 6.75-6.75zm23.781 0c3.717 0 6.75 3.033 6.75 6.75s-3.033 6.7188-6.75 6.7188-6.7188-3.0017-6.7188-6.7188c0-3.717 3.0017-6.75 6.7188-6.75z" stroke="#b3b3b3" fill="#89a02c"/>
      <path id="path6542" d="m28.834 348.38c-4.7486 0-8.5625 3.8139-8.5625 8.5625v238.56c0 4.7486 3.8139 8.5938 8.5625 8.5938h238.56c4.7486 0 8.5625-3.8452 8.5625-8.5938v-238.56c0-4.7486-3.8139-8.5625-8.5625-8.5625h-238.56zm11.219 10.281c3.717 0 6.7188 3.033 6.7188 6.75s-3.0017 6.7188-6.7188 6.7188c-3.717 0-6.7188-3.0017-6.7188-6.7188 0-3.717 3.0017-6.75 6.7188-6.75zm24.25 0c3.717 0 6.7188 3.033 6.7188 6.75s-3.0017 6.7188-6.7188 6.7188c-3.717 0-6.75-3.0017-6.75-6.7188 0-3.717 3.033-6.75 6.75-6.75zm23.719 0c3.717 0 6.75 3.033 6.75 6.75s-3.033 6.7188-6.75 6.7188-6.7188-3.0017-6.7188-6.7188c0-3.717 3.0017-6.75 6.7188-6.75zm23.781 0c3.717 0 6.7188 3.033 6.7188 6.75s-3.0017 6.7188-6.7188 6.7188c-3.717 0-6.7188-3.0017-6.7188-6.7188 0-3.717 3.0017-6.75 6.7188-6.75zm23.906 0c3.717 0 6.75 3.033 6.75 6.75s-3.033 6.7188-6.75 6.7188-6.7188-3.0017-6.7188-6.7188c0-3.717 3.0017-6.75 6.7188-6.75zm24.062 0c3.717 0 6.7188 3.033 6.7188 6.75s-3.0017 6.7188-6.7188 6.7188c-3.717 0-6.75-3.0017-6.75-6.7188 0-3.717 3.033-6.75 6.75-6.75zm24.188 0c3.717 0 6.75 3.033 6.75 6.75s-3.033 6.7188-6.75 6.7188-6.7188-3.0017-6.7188-6.7188c0-3.717 3.0017-6.75 6.7188-6.75zm24.281 0c3.717 0 6.75 3.033 6.75 6.75s-3.033 6.7188-6.75 6.7188-6.7188-3.0017-6.7188-6.7188c0-3.717 3.0017-6.75 6.7188-6.75zm23.688 0c3.717 0 6.7188 3.033 6.7188 6.75s-3.0017 6.7188-6.7188 6.7188c-3.717 0-6.75-3.0017-6.75-6.7188 0-3.717 3.033-6.75 6.75-6.75zm23.781 0c3.717 0 6.75 3.033 6.75 6.75s-3.033 6.7188-6.75 6.7188-6.7188-3.0017-6.7188-6.7188c0-3.717 3.0017-6.75 6.7188-6.75z" stroke="#445016" fill="#89a02c"/>
      <path id="rect2985" d="m27.257 347.43c-4.7486 0-8.5625 3.8139-8.5625 8.5625v238.56c0 4.7486 3.8139 8.5938 8.5625 8.5938h238.56c4.7486 0 8.5625-3.8452 8.5625-8.5938v-238.56c0-4.7486-3.8139-8.5625-8.5625-8.5625h-238.56zm11.219 10.281c3.717 0 6.7188 3.033 6.7188 6.75s-3.0017 6.7188-6.7188 6.7188c-3.717 0-6.7188-3.0017-6.7188-6.7188 0-3.717 3.0017-6.75 6.7188-6.75zm24.25 0c3.717 0 6.7188 3.033 6.7188 6.75s-3.0017 6.7188-6.7188 6.7188c-3.717 0-6.75-3.0017-6.75-6.7188 0-3.717 3.033-6.75 6.75-6.75zm23.719 0c3.717 0 6.75 3.033 6.75 6.75s-3.033 6.7188-6.75 6.7188-6.7188-3.0017-6.7188-6.7188c0-3.717 3.0017-6.75 6.7188-6.75zm23.781 0c3.717 0 6.7188 3.033 6.7188 6.75s-3.0017 6.7188-6.7188 6.7188c-3.717 0-6.7188-3.0017-6.7188-6.7188 0-3.717 3.0017-6.75 6.7188-6.75zm23.906 0c3.717 0 6.75 3.033 6.75 6.75s-3.033 6.7188-6.75 6.7188-6.7188-3.0017-6.7188-6.7188c0-3.717 3.0017-6.75 6.7188-6.75zm24.062 0c3.717 0 6.7188 3.033 6.7188 6.75s-3.0017 6.7188-6.7188 6.7188c-3.717 0-6.75-3.0017-6.75-6.7188 0-3.717 3.033-6.75 6.75-6.75zm24.188 0c3.717 0 6.75 3.033 6.75 6.75s-3.033 6.7188-6.75 6.7188-6.7188-3.0017-6.7188-6.7188c0-3.717 3.0017-6.75 6.7188-6.75zm24.281 0c3.717 0 6.75 3.033 6.75 6.75s-3.033 6.7188-6.75 6.7188-6.7188-3.0017-6.7188-6.7188c0-3.717 3.0017-6.75 6.7188-6.75zm23.688 0c3.717 0 6.7188 3.033 6.7188 6.75s-3.0017 6.7188-6.7188 6.7188c-3.717 0-6.75-3.0017-6.75-6.7188 0-3.717 3.033-6.75 6.75-6.75zm23.781 0c3.717 0 6.75 3.033 6.75 6.75s-3.033 6.7188-6.75 6.7188-6.7188-3.0017-6.7188-6.7188c0-3.717 3.0017-6.75 6.7188-6.75z" stroke="#677821" fill="#dde9af"/>
      <g id="g6601" stroke-linejoin="round" transform="translate(-180.46 16.07)" stroke="#22280b" stroke-linecap="round" stroke-width=".91317">
        <rect id="rect3936" rx="8.5714" ry="8.5714" height="36.929" width="12.857" y="316.31" x="212.08" fill="url(#linearGradient4157)"/>
        <rect id="rect6548" rx="8.5714" ry="8.5714" height="36.929" width="12.857" y="316.31" x="428.87" fill="url(#linearGradient4159)"/>
        <rect id="rect6550" rx="8.5714" ry="8.5714" height="36.929" width="12.857" y="316.31" x="404.78" fill="url(#linearGradient4161)"/>
        <rect id="rect6552" rx="8.5714" ry="8.5714" height="36.929" width="12.857" y="316.31" x="380.69" fill="url(#linearGradient4163)"/>
        <rect id="rect6554" rx="8.5714" ry="8.5714" height="36.929" width="12.857" y="316.31" x="356.61" fill="url(#linearGradient4165)"/>
        <rect id="rect6556" rx="8.5714" ry="8.5714" height="36.929" width="12.857" y="316.31" x="332.52" fill="url(#linearGradient4167)"/>
        <rect id="rect6558" rx="8.5714" ry="8.5714" height="36.929" width="12.857" y="316.31" x="308.43" fill="url(#linearGradient4169)"/>
        <rect id="rect6560" rx="8.5714" ry="8.5714" height="36.929" width="12.857" y="316.31" x="284.34" fill="url(#linearGradient4171)"/>
        <rect id="rect6562" rx="8.5714" ry="8.5714" height="36.929" width="12.857" y="316.31" x="260.26" fill="url(#linearGradient4173)"/>
        <rect id="rect6564" rx="8.5714" ry="8.5714" height="36.929" width="12.857" y="316.31" x="236.17" fill="url(#linearGradient4175)"/>
      </g>
      <g id="g3287" opacity=".3578" transform="translate(0,12)" stroke="#000" stroke-width="1px" fill="none">
        <path id="path3271" d="m37.666 402.44h218.61"/>
        <path id="path3273" d="m37.56 425.97h218.61"/>
        <path id="path3275" d="m37.455 449.5h218.61"/>
        <path id="path3277" d="m37.349 473.03h218.61"/>
        <path id="path3279" d="m37.244 496.55h218.61"/>
        <path id="path3281" d="m37.138 520.08h218.61"/>
        <path id="path3283" d="m37.033 543.61h218.61"/>
        <path id="path3285" d="m36.927 567.14h218.61"/>
      </g>
      <path id="path3297" opacity=".5" d="m195.71 393.36h60.561" stroke="#000" stroke-width="1px" fill="none"/>
    </g>
  </g>
  <metadata>
    <rdf:RDF>
      <cc:Work>
        <dc:format>image/svg+xml</dc:format>
        <dc:type rdf:resource="http://purl.org/dc/dcmitype/StillImage"/>
        <cc:license rdf:resource="http://creativecommons.org/licenses/publicdomain/"/>
        <dc:publisher>
          <cc:Agent rdf:about="http://openclipart.org/">
            <dc:title>Openclipart</dc:title>
          </cc:Agent>
        </dc:publisher>
        <dc:title>Rmx_notes</dc:title>
        <dc:date>2012-05-06T01:40:18</dc:date>
        <dc:description>Notes, clip art, clipart, document, notepad, office, png, reminder, sticky, svg, </dc:description>
        <dc:source>http://openclipart.org/detail/169875/rmx_notes-by-gsagri04</dc:source>
        <dc:creator>
          <cc:Agent>
            <dc:title>gsagri04</dc:title>
          </cc:Agent>
        </dc:creator>
        <dc:subject>
          <rdf:Bag>
            <rdf:li>Notes</rdf:li>
            <rdf:li>clip art</rdf:li>
            <rdf:li>clipart</rdf:li>
            <rdf:li>document</rdf:li>
            <rdf:li>notepad</rdf:li>
            <rdf:li>office</rdf:li>
            <rdf:li>png</rdf:li>
            <rdf:li>reminder</rdf:li>
            <rdf:li>sticky</rdf:li>
            <rdf:li>svg</rdf:li>
          </rdf:Bag>
        </dc:subject>
      </cc:Work>
      <cc:License rdf:about="http://creativecommons.org/licenses/publicdomain/">
        <cc:permits rdf:resource="http://creativecommons.org/ns#Reproduction"/>
        <cc:permits rdf:resource="http://creativecommons.org/ns#Distribution"/>
        <cc:permits rdf:resource="http://creativecommons.org/ns#DerivativeWorks"/>
      </cc:License>
    </rdf:RDF>
  </metadata>
</svg>
