<svg xmlns="http://www.w3.org/2000/svg" xmlns:svg="http://www.w3.org/2000/svg" xmlns:xlink="http://www.w3.org/1999/xlink" id="svg2" version="1.1" viewBox="0 0 273.2 287.62"><defs id="defs4"><filter id="filter6773" color-interpolation-filters="sRGB"><feGaussianBlur id="feGaussianBlur6775" stdDeviation="2.666"/></filter><linearGradient id="linearGradient3867"><stop id="stop3869" offset="0" stop-color="#b3b3b3"/><stop id="stop3875" offset=".5" stop-color="#fffcfc"/><stop id="stop3871" offset="1" stop-color="#bbb"/></linearGradient><linearGradient id="linearGradient4157" x1="202.01" x2="215.78" y1="256.29" y2="256.29" gradientTransform="translate(9.616 78.48)" gradientUnits="userSpaceOnUse" xlink:href="#linearGradient3867"/><linearGradient id="linearGradient4159" x1="202.01" x2="215.78" y1="256.29" y2="256.29" gradientTransform="translate(226.4 78.48)" gradientUnits="userSpaceOnUse" xlink:href="#linearGradient3867"/><linearGradient id="linearGradient4161" x1="202.01" x2="215.78" y1="256.29" y2="256.29" gradientTransform="translate(202.31 78.48)" gradientUnits="userSpaceOnUse" xlink:href="#linearGradient3867"/><linearGradient id="linearGradient4163" x1="202.01" x2="215.78" y1="256.29" y2="256.29" gradientTransform="translate(178.23 78.48)" gradientUnits="userSpaceOnUse" xlink:href="#linearGradient3867"/><linearGradient id="linearGradient4165" x1="202.01" x2="215.78" y1="256.29" y2="256.29" gradientTransform="translate(154.14 78.48)" gradientUnits="userSpaceOnUse" xlink:href="#linearGradient3867"/><linearGradient id="linearGradient4167" x1="202.01" x2="215.78" y1="256.29" y2="256.29" gradientTransform="translate(130.05 78.48)" gradientUnits="userSpaceOnUse" xlink:href="#linearGradient3867"/><linearGradient id="linearGradient4169" x1="202.01" x2="215.78" y1="256.29" y2="256.29" gradientTransform="translate(105.97 78.48)" gradientUnits="userSpaceOnUse" xlink:href="#linearGradient3867"/><linearGradient id="linearGradient4171" x1="202.01" x2="215.78" y1="256.29" y2="256.29" gradientTransform="translate(81.878 78.48)" gradientUnits="userSpaceOnUse" xlink:href="#linearGradient3867"/><linearGradient id="linearGradient4173" x1="202.01" x2="215.78" y1="256.29" y2="256.29" gradientTransform="translate(57.791 78.48)" gradientUnits="userSpaceOnUse" xlink:href="#linearGradient3867"/><linearGradient id="linearGradient4175" x1="202.01" x2="215.78" y1="256.29" y2="256.29" gradientTransform="translate(33.703 78.48)" gradientUnits="userSpaceOnUse" xlink:href="#linearGradient3867"/></defs><g id="layer1" transform="translate(-14.839 -328.55)"><flowRoot id="flowRoot6694" style="word-spacing:0;letter-spacing:0" fill="#000" font-family="Courier 10 Pitch" font-size="40" line-height="125%" transform="translate(-177.57 19.544)" xml:space="preserve"><flowRegion id="flowRegion6696"><rect id="rect6698" width="238.57" height="218.57" x="208.57" y="360.93"/></flowRegion><flowPara id="flowPara6700"/></flowRoot><g id="g4112"><g id="g6733" filter="url(#filter6773)" opacity=".319" transform="translate(-177.57 19.544)"><g id="g6735"><path id="path6737" stroke="#000" d="m211.58 334.01c-4.7486 0-8.5625 3.8139-8.5625 8.5625v238.56c0 4.7486 3.8139 8.5938 8.5625 8.5938h238.56c4.7486 0 8.5625-3.8452 8.5625-8.5938v-238.56c0-4.7486-3.8139-8.5625-8.5625-8.5625h-238.56zm11.219 10.281c3.717 0 6.7188 3.033 6.7188 6.75s-3.0017 6.7188-6.7188 6.7188c-3.717 0-6.7188-3.0017-6.7188-6.7188 0-3.717 3.0017-6.75 6.7188-6.75zm24.25 0c3.717 0 6.7188 3.033 6.7188 6.75s-3.0017 6.7188-6.7188 6.7188c-3.717 0-6.75-3.0017-6.75-6.7188 0-3.717 3.033-6.75 6.75-6.75zm23.719 0c3.717 0 6.75 3.033 6.75 6.75s-3.033 6.7188-6.75 6.7188-6.7188-3.0017-6.7188-6.7188c0-3.717 3.0017-6.75 6.7188-6.75zm23.781 0c3.717 0 6.7188 3.033 6.7188 6.75s-3.0017 6.7188-6.7188 6.7188c-3.717 0-6.7188-3.0017-6.7188-6.7188 0-3.717 3.0017-6.75 6.7188-6.75zm23.906 0c3.717 0 6.75 3.033 6.75 6.75s-3.033 6.7188-6.75 6.7188-6.7188-3.0017-6.7188-6.7188c0-3.717 3.0017-6.75 6.7188-6.75zm24.062 0c3.717 0 6.7188 3.033 6.7188 6.75s-3.0017 6.7188-6.7188 6.7188c-3.717 0-6.75-3.0017-6.75-6.7188 0-3.717 3.033-6.75 6.75-6.75zm24.188 0c3.717 0 6.75 3.033 6.75 6.75s-3.033 6.7188-6.75 6.7188-6.7188-3.0017-6.7188-6.7188c0-3.717 3.0017-6.75 6.7188-6.75zm24.281 0c3.717 0 6.75 3.033 6.75 6.75s-3.033 6.7188-6.75 6.7188-6.7188-3.0017-6.7188-6.7188c0-3.717 3.0017-6.75 6.7188-6.75zm23.688 0c3.717 0 6.7188 3.033 6.7188 6.75s-3.0017 6.7188-6.7188 6.7188c-3.717 0-6.75-3.0017-6.75-6.7188 0-3.717 3.033-6.75 6.75-6.75zm23.781 0c3.717 0 6.75 3.033 6.75 6.75s-3.033 6.7188-6.75 6.7188-6.7188-3.0017-6.7188-6.7188c0-3.717 3.0017-6.75 6.7188-6.75z"/><path id="path6739" stroke="#b3b3b3" d="m210.15 333.29c-4.7486 0-8.5625 3.8139-8.5625 8.5625v238.56c0 4.7486 3.8139 8.5938 8.5625 8.5938h238.56c4.7486 0 8.5625-3.8452 8.5625-8.5938v-238.56c0-4.7486-3.8139-8.5625-8.5625-8.5625h-238.56zm11.219 10.281c3.717 0 6.7188 3.033 6.7188 6.75s-3.0017 6.7188-6.7188 6.7188c-3.717 0-6.7188-3.0017-6.7188-6.7188 0-3.717 3.0017-6.75 6.7188-6.75zm24.25 0c3.717 0 6.7188 3.033 6.7188 6.75s-3.0017 6.7188-6.7188 6.7188c-3.717 0-6.75-3.0017-6.75-6.7188 0-3.717 3.033-6.75 6.75-6.75zm23.719 0c3.717 0 6.75 3.033 6.75 6.75s-3.033 6.7188-6.75 6.7188-6.7188-3.0017-6.7188-6.7188c0-3.717 3.0017-6.75 6.7188-6.75zm23.781 0c3.717 0 6.7188 3.033 6.7188 6.75s-3.0017 6.7188-6.7188 6.7188c-3.717 0-6.7188-3.0017-6.7188-6.7188 0-3.717 3.0017-6.75 6.7188-6.75zm23.906 0c3.717 0 6.75 3.033 6.75 6.75s-3.033 6.7188-6.75 6.7188-6.7188-3.0017-6.7188-6.7188c0-3.717 3.0017-6.75 6.7188-6.75zm24.062 0c3.717 0 6.7188 3.033 6.7188 6.75s-3.0017 6.7188-6.7188 6.7188c-3.717 0-6.75-3.0017-6.75-6.7188 0-3.717 3.033-6.75 6.75-6.75zm24.188 0c3.717 0 6.75 3.033 6.75 6.75s-3.033 6.7188-6.75 6.7188-6.7188-3.0017-6.7188-6.7188c0-3.717 3.0017-6.75 6.7188-6.75zm24.281 0c3.717 0 6.75 3.033 6.75 6.75s-3.033 6.7188-6.75 6.7188-6.7188-3.0017-6.7188-6.7188c0-3.717 3.0017-6.75 6.7188-6.75zm23.688 0c3.717 0 6.7188 3.033 6.7188 6.75s-3.0017 6.7188-6.7188 6.7188c-3.717 0-6.75-3.0017-6.75-6.7188 0-3.717 3.033-6.75 6.75-6.75zm23.781 0c3.717 0 6.75 3.033 6.75 6.75s-3.033 6.7188-6.75 6.7188-6.7188-3.0017-6.7188-6.7188c0-3.717 3.0017-6.75 6.7188-6.75z"/><path id="path6741" stroke="#999" d="m209.44 331.87c-4.7486 0-8.5625 3.8139-8.5625 8.5625v238.56c0 4.7486 3.8139 8.5938 8.5625 8.5938h238.56c4.7486 0 8.5625-3.8452 8.5625-8.5938v-238.56c0-4.7486-3.8139-8.5625-8.5625-8.5625h-238.56zm11.219 10.281c3.717 0 6.7188 3.033 6.7188 6.75s-3.0017 6.7188-6.7188 6.7188c-3.717 0-6.7188-3.0017-6.7188-6.7188 0-3.717 3.0017-6.75 6.7188-6.75zm24.25 0c3.717 0 6.7188 3.033 6.7188 6.75s-3.0017 6.7188-6.7188 6.7188c-3.717 0-6.75-3.0017-6.75-6.7188 0-3.717 3.033-6.75 6.75-6.75zm23.719 0c3.717 0 6.75 3.033 6.75 6.75s-3.033 6.7188-6.75 6.7188-6.7188-3.0017-6.7188-6.7188c0-3.717 3.0017-6.75 6.7188-6.75zm23.781 0c3.717 0 6.7188 3.033 6.7188 6.75s-3.0017 6.7188-6.7188 6.7188c-3.717 0-6.7188-3.0017-6.7188-6.7188 0-3.717 3.0017-6.75 6.7188-6.75zm23.906 0c3.717 0 6.75 3.033 6.75 6.75s-3.033 6.7188-6.75 6.7188-6.7188-3.0017-6.7188-6.7188c0-3.717 3.0017-6.75 6.7188-6.75zm24.062 0c3.717 0 6.7188 3.033 6.7188 6.75s-3.0017 6.7188-6.7188 6.7188c-3.717 0-6.75-3.0017-6.75-6.7188 0-3.717 3.033-6.75 6.75-6.75zm24.188 0c3.717 0 6.75 3.033 6.75 6.75s-3.033 6.7188-6.75 6.7188-6.7188-3.0017-6.7188-6.7188c0-3.717 3.0017-6.75 6.7188-6.75zm24.281 0c3.717 0 6.75 3.033 6.75 6.75s-3.033 6.7188-6.75 6.7188-6.7188-3.0017-6.7188-6.7188c0-3.717 3.0017-6.75 6.7188-6.75zm23.688 0c3.717 0 6.7188 3.033 6.7188 6.75s-3.0017 6.7188-6.7188 6.7188c-3.717 0-6.75-3.0017-6.75-6.7188 0-3.717 3.033-6.75 6.75-6.75zm23.781 0c3.717 0 6.75 3.033 6.75 6.75s-3.033 6.7188-6.75 6.7188-6.7188-3.0017-6.7188-6.7188c0-3.717 3.0017-6.75 6.7188-6.75z"/><path id="path6743" stroke="#000" d="m207.86 331.66c-4.7486 0-8.5625 3.8139-8.5625 8.5625v238.56c0 4.7486 3.8139 8.5938 8.5625 8.5938h238.56c4.7486 0 8.5625-3.8452 8.5625-8.5938v-238.56c0-4.7486-3.8139-8.5625-8.5625-8.5625h-238.56zm11.219 10.281c3.717 0 6.7188 3.033 6.7188 6.75s-3.0017 6.7188-6.7188 6.7188c-3.717 0-6.7188-3.0017-6.7188-6.7188 0-3.717 3.0017-6.75 6.7188-6.75zm24.25 0c3.717 0 6.7188 3.033 6.7188 6.75s-3.0017 6.7188-6.7188 6.7188c-3.717 0-6.75-3.0017-6.75-6.7188 0-3.717 3.033-6.75 6.75-6.75zm23.719 0c3.717 0 6.75 3.033 6.75 6.75s-3.033 6.7188-6.75 6.7188-6.7188-3.0017-6.7188-6.7188c0-3.717 3.0017-6.75 6.7188-6.75zm23.781 0c3.717 0 6.7188 3.033 6.7188 6.75s-3.0017 6.7188-6.7188 6.7188c-3.717 0-6.7188-3.0017-6.7188-6.7188 0-3.717 3.0017-6.75 6.7188-6.75zm23.906 0c3.717 0 6.75 3.033 6.75 6.75s-3.033 6.7188-6.75 6.7188-6.7188-3.0017-6.7188-6.7188c0-3.717 3.0017-6.75 6.7188-6.75zm24.062 0c3.717 0 6.7188 3.033 6.7188 6.75s-3.0017 6.7188-6.7188 6.7188c-3.717 0-6.75-3.0017-6.75-6.7188 0-3.717 3.033-6.75 6.75-6.75zm24.188 0c3.717 0 6.75 3.033 6.75 6.75s-3.033 6.7188-6.75 6.7188-6.7188-3.0017-6.7188-6.7188c0-3.717 3.0017-6.75 6.7188-6.75zm24.281 0c3.717 0 6.75 3.033 6.75 6.75s-3.033 6.7188-6.75 6.7188-6.7188-3.0017-6.7188-6.7188c0-3.717 3.0017-6.75 6.7188-6.75zm23.688 0c3.717 0 6.7188 3.033 6.7188 6.75s-3.0017 6.7188-6.7188 6.7188c-3.717 0-6.75-3.0017-6.75-6.7188 0-3.717 3.033-6.75 6.75-6.75zm23.781 0c3.717 0 6.75 3.033 6.75 6.75s-3.033 6.7188-6.75 6.7188-6.7188-3.0017-6.7188-6.7188c0-3.717 3.0017-6.75 6.7188-6.75z"/><g id="g6745" stroke="#000" stroke-linecap="round" stroke-linejoin="round" stroke-width=".913" transform="translate(.14793 -.44380)"><rect id="rect6747" width="12.857" height="36.929" x="212.08" y="316.31" rx="8.571" ry="8.571"/><rect id="rect6749" width="12.857" height="36.929" x="428.87" y="316.31" rx="8.571" ry="8.571"/><rect id="rect6751" width="12.857" height="36.929" x="404.78" y="316.31" rx="8.571" ry="8.571"/><rect id="rect6753" width="12.857" height="36.929" x="380.69" y="316.31" rx="8.571" ry="8.571"/><rect id="rect6755" width="12.857" height="36.929" x="356.61" y="316.31" rx="8.571" ry="8.571"/><rect id="rect6757" width="12.857" height="36.929" x="332.52" y="316.31" rx="8.571" ry="8.571"/><rect id="rect6759" width="12.857" height="36.929" x="308.43" y="316.31" rx="8.571" ry="8.571"/><rect id="rect6761" width="12.857" height="36.929" x="284.34" y="316.31" rx="8.571" ry="8.571"/><rect id="rect6763" width="12.857" height="36.929" x="260.26" y="316.31" rx="8.571" ry="8.571"/><rect id="rect6765" width="12.857" height="36.929" x="236.17" y="316.31" rx="8.571" ry="8.571"/></g><path id="path6767" d="m450.03 332.44c2.3213 7.1454 3.5312 14.517 3.5312 22.062 0 64.302-88.246 116.44-197.12 116.44-19.866 0-39.042-1.7406-57.125-4.9688v112.81c0 4.7486 3.8139 8.5938 8.5625 8.5938h238.56c4.7486 0 8.5625-3.8452 8.5625-8.5938v-238.56c0-3.4526-2.043-6.4236-4.9688-7.7812z" opacity=".251"/></g></g><path id="path6615" fill="#ccc" stroke="#445016" d="m30.977 350.52c-4.7486 0-8.5625 3.8139-8.5625 8.5625v238.56c0 4.7486 3.8139 8.5938 8.5625 8.5938h238.56c4.7486 0 8.5625-3.8452 8.5625-8.5938v-238.56c0-4.7486-3.8139-8.5625-8.5625-8.5625h-238.56zm11.219 10.281c3.717 0 6.7188 3.033 6.7188 6.75s-3.0017 6.7188-6.7188 6.7188c-3.717 0-6.7188-3.0017-6.7188-6.7188 0-3.717 3.0017-6.75 6.7188-6.75zm24.25 0c3.717 0 6.7188 3.033 6.7188 6.75s-3.0017 6.7188-6.7188 6.7188c-3.717 0-6.75-3.0017-6.75-6.7188 0-3.717 3.033-6.75 6.75-6.75zm23.719 0c3.717 0 6.75 3.033 6.75 6.75s-3.033 6.7188-6.75 6.7188-6.7188-3.0017-6.7188-6.7188c0-3.717 3.0017-6.75 6.7188-6.75zm23.781 0c3.717 0 6.7188 3.033 6.7188 6.75s-3.0017 6.7188-6.7188 6.7188c-3.717 0-6.7188-3.0017-6.7188-6.7188 0-3.717 3.0017-6.75 6.7188-6.75zm23.906 0c3.717 0 6.75 3.033 6.75 6.75s-3.033 6.7188-6.75 6.7188-6.7188-3.0017-6.7188-6.7188c0-3.717 3.0017-6.75 6.7188-6.75zm24.062 0c3.717 0 6.7188 3.033 6.7188 6.75s-3.0017 6.7188-6.7188 6.7188c-3.717 0-6.75-3.0017-6.75-6.7188 0-3.717 3.033-6.75 6.75-6.75zm24.188 0c3.717 0 6.75 3.033 6.75 6.75s-3.033 6.7188-6.75 6.7188-6.7188-3.0017-6.7188-6.7188c0-3.717 3.0017-6.75 6.7188-6.75zm24.281 0c3.717 0 6.75 3.033 6.75 6.75s-3.033 6.7188-6.75 6.7188-6.7188-3.0017-6.7188-6.7188c0-3.717 3.0017-6.75 6.7188-6.75zm23.688 0c3.717 0 6.7188 3.033 6.7188 6.75s-3.0017 6.7188-6.7188 6.7188c-3.717 0-6.75-3.0017-6.75-6.7188 0-3.717 3.033-6.75 6.75-6.75zm23.781 0c3.717 0 6.75 3.033 6.75 6.75s-3.033 6.7188-6.75 6.7188-6.7188-3.0017-6.7188-6.7188c0-3.717 3.0017-6.75 6.7188-6.75z"/><path id="path6613" fill="#89a02c" stroke="#b3b3b3" d="m29.548 349.81c-4.7486 0-8.5625 3.8139-8.5625 8.5625v238.56c0 4.7486 3.8139 8.5938 8.5625 8.5938h238.56c4.7486 0 8.5625-3.8452 8.5625-8.5938v-238.56c0-4.7486-3.8139-8.5625-8.5625-8.5625h-238.56zm11.219 10.281c3.717 0 6.7188 3.033 6.7188 6.75s-3.0017 6.7188-6.7188 6.7188c-3.717 0-6.7188-3.0017-6.7188-6.7188 0-3.717 3.0017-6.75 6.7188-6.75zm24.25 0c3.717 0 6.7188 3.033 6.7188 6.75s-3.0017 6.7188-6.7188 6.7188c-3.717 0-6.75-3.0017-6.75-6.7188 0-3.717 3.033-6.75 6.75-6.75zm23.719 0c3.717 0 6.75 3.033 6.75 6.75s-3.033 6.7188-6.75 6.7188-6.7188-3.0017-6.7188-6.7188c0-3.717 3.0017-6.75 6.7188-6.75zm23.781 0c3.717 0 6.7188 3.033 6.7188 6.75s-3.0017 6.7188-6.7188 6.7188c-3.717 0-6.7188-3.0017-6.7188-6.7188 0-3.717 3.0017-6.75 6.7188-6.75zm23.906 0c3.717 0 6.75 3.033 6.75 6.75s-3.033 6.7188-6.75 6.7188-6.7188-3.0017-6.7188-6.7188c0-3.717 3.0017-6.75 6.7188-6.75zm24.062 0c3.717 0 6.7188 3.033 6.7188 6.75s-3.0017 6.7188-6.7188 6.7188c-3.717 0-6.75-3.0017-6.75-6.7188 0-3.717 3.033-6.75 6.75-6.75zm24.188 0c3.717 0 6.75 3.033 6.75 6.75s-3.033 6.7188-6.75 6.7188-6.7188-3.0017-6.7188-6.7188c0-3.717 3.0017-6.75 6.7188-6.75zm24.281 0c3.717 0 6.75 3.033 6.75 6.75s-3.033 6.7188-6.75 6.7188-6.7188-3.0017-6.7188-6.7188c0-3.717 3.0017-6.75 6.7188-6.75zm23.688 0c3.717 0 6.7188 3.033 6.7188 6.75s-3.0017 6.7188-6.7188 6.7188c-3.717 0-6.75-3.0017-6.75-6.7188 0-3.717 3.033-6.75 6.75-6.75zm23.781 0c3.717 0 6.75 3.033 6.75 6.75s-3.033 6.7188-6.75 6.7188-6.7188-3.0017-6.7188-6.7188c0-3.717 3.0017-6.75 6.7188-6.75z"/><path id="path6542" fill="#89a02c" stroke="#445016" d="m28.834 348.38c-4.7486 0-8.5625 3.8139-8.5625 8.5625v238.56c0 4.7486 3.8139 8.5938 8.5625 8.5938h238.56c4.7486 0 8.5625-3.8452 8.5625-8.5938v-238.56c0-4.7486-3.8139-8.5625-8.5625-8.5625h-238.56zm11.219 10.281c3.717 0 6.7188 3.033 6.7188 6.75s-3.0017 6.7188-6.7188 6.7188c-3.717 0-6.7188-3.0017-6.7188-6.7188 0-3.717 3.0017-6.75 6.7188-6.75zm24.25 0c3.717 0 6.7188 3.033 6.7188 6.75s-3.0017 6.7188-6.7188 6.7188c-3.717 0-6.75-3.0017-6.75-6.7188 0-3.717 3.033-6.75 6.75-6.75zm23.719 0c3.717 0 6.75 3.033 6.75 6.75s-3.033 6.7188-6.75 6.7188-6.7188-3.0017-6.7188-6.7188c0-3.717 3.0017-6.75 6.7188-6.75zm23.781 0c3.717 0 6.7188 3.033 6.7188 6.75s-3.0017 6.7188-6.7188 6.7188c-3.717 0-6.7188-3.0017-6.7188-6.7188 0-3.717 3.0017-6.75 6.7188-6.75zm23.906 0c3.717 0 6.75 3.033 6.75 6.75s-3.033 6.7188-6.75 6.7188-6.7188-3.0017-6.7188-6.7188c0-3.717 3.0017-6.75 6.7188-6.75zm24.062 0c3.717 0 6.7188 3.033 6.7188 6.75s-3.0017 6.7188-6.7188 6.7188c-3.717 0-6.75-3.0017-6.75-6.7188 0-3.717 3.033-6.75 6.75-6.75zm24.188 0c3.717 0 6.75 3.033 6.75 6.75s-3.033 6.7188-6.75 6.7188-6.7188-3.0017-6.7188-6.7188c0-3.717 3.0017-6.75 6.7188-6.75zm24.281 0c3.717 0 6.75 3.033 6.75 6.75s-3.033 6.7188-6.75 6.7188-6.7188-3.0017-6.7188-6.7188c0-3.717 3.0017-6.75 6.7188-6.75zm23.688 0c3.717 0 6.7188 3.033 6.7188 6.75s-3.0017 6.7188-6.7188 6.7188c-3.717 0-6.75-3.0017-6.75-6.7188 0-3.717 3.033-6.75 6.75-6.75zm23.781 0c3.717 0 6.75 3.033 6.75 6.75s-3.033 6.7188-6.75 6.7188-6.7188-3.0017-6.7188-6.7188c0-3.717 3.0017-6.75 6.7188-6.75z"/><path id="rect2985" fill="#dde9af" stroke="#677821" d="m27.257 347.43c-4.7486 0-8.5625 3.8139-8.5625 8.5625v238.56c0 4.7486 3.8139 8.5938 8.5625 8.5938h238.56c4.7486 0 8.5625-3.8452 8.5625-8.5938v-238.56c0-4.7486-3.8139-8.5625-8.5625-8.5625h-238.56zm11.219 10.281c3.717 0 6.7188 3.033 6.7188 6.75s-3.0017 6.7188-6.7188 6.7188c-3.717 0-6.7188-3.0017-6.7188-6.7188 0-3.717 3.0017-6.75 6.7188-6.75zm24.25 0c3.717 0 6.7188 3.033 6.7188 6.75s-3.0017 6.7188-6.7188 6.7188c-3.717 0-6.75-3.0017-6.75-6.7188 0-3.717 3.033-6.75 6.75-6.75zm23.719 0c3.717 0 6.75 3.033 6.75 6.75s-3.033 6.7188-6.75 6.7188-6.7188-3.0017-6.7188-6.7188c0-3.717 3.0017-6.75 6.7188-6.75zm23.781 0c3.717 0 6.7188 3.033 6.7188 6.75s-3.0017 6.7188-6.7188 6.7188c-3.717 0-6.7188-3.0017-6.7188-6.7188 0-3.717 3.0017-6.75 6.7188-6.75zm23.906 0c3.717 0 6.75 3.033 6.75 6.75s-3.033 6.7188-6.75 6.7188-6.7188-3.0017-6.7188-6.7188c0-3.717 3.0017-6.75 6.7188-6.75zm24.062 0c3.717 0 6.7188 3.033 6.7188 6.75s-3.0017 6.7188-6.7188 6.7188c-3.717 0-6.75-3.0017-6.75-6.7188 0-3.717 3.033-6.75 6.75-6.75zm24.188 0c3.717 0 6.75 3.033 6.75 6.75s-3.033 6.7188-6.75 6.7188-6.7188-3.0017-6.7188-6.7188c0-3.717 3.0017-6.75 6.7188-6.75zm24.281 0c3.717 0 6.75 3.033 6.75 6.75s-3.033 6.7188-6.75 6.7188-6.7188-3.0017-6.7188-6.7188c0-3.717 3.0017-6.75 6.7188-6.75zm23.688 0c3.717 0 6.7188 3.033 6.7188 6.75s-3.0017 6.7188-6.7188 6.7188c-3.717 0-6.75-3.0017-6.75-6.7188 0-3.717 3.033-6.75 6.75-6.75zm23.781 0c3.717 0 6.75 3.033 6.75 6.75s-3.033 6.7188-6.75 6.7188-6.7188-3.0017-6.7188-6.7188c0-3.717 3.0017-6.75 6.7188-6.75z"/><g id="g6601" stroke="#22280b" stroke-linecap="round" stroke-linejoin="round" stroke-width=".913" transform="translate(-180.46 16.07)"><rect id="rect3936" width="12.857" height="36.929" x="212.08" y="316.31" fill="url(#linearGradient4157)" rx="8.571" ry="8.571"/><rect id="rect6548" width="12.857" height="36.929" x="428.87" y="316.31" fill="url(#linearGradient4159)" rx="8.571" ry="8.571"/><rect id="rect6550" width="12.857" height="36.929" x="404.78" y="316.31" fill="url(#linearGradient4161)" rx="8.571" ry="8.571"/><rect id="rect6552" width="12.857" height="36.929" x="380.69" y="316.31" fill="url(#linearGradient4163)" rx="8.571" ry="8.571"/><rect id="rect6554" width="12.857" height="36.929" x="356.61" y="316.31" fill="url(#linearGradient4165)" rx="8.571" ry="8.571"/><rect id="rect6556" width="12.857" height="36.929" x="332.52" y="316.31" fill="url(#linearGradient4167)" rx="8.571" ry="8.571"/><rect id="rect6558" width="12.857" height="36.929" x="308.43" y="316.31" fill="url(#linearGradient4169)" rx="8.571" ry="8.571"/><rect id="rect6560" width="12.857" height="36.929" x="284.34" y="316.31" fill="url(#linearGradient4171)" rx="8.571" ry="8.571"/><rect id="rect6562" width="12.857" height="36.929" x="260.26" y="316.31" fill="url(#linearGradient4173)" rx="8.571" ry="8.571"/><rect id="rect6564" width="12.857" height="36.929" x="236.17" y="316.31" fill="url(#linearGradient4175)" rx="8.571" ry="8.571"/></g><g id="g3287" fill="none" stroke="#000" stroke-width="1" opacity=".358" transform="translate(0,12)"><path id="path3271" d="m37.666 402.44h218.61"/><path id="path3273" d="m37.56 425.97h218.61"/><path id="path3275" d="m37.455 449.5h218.61"/><path id="path3277" d="m37.349 473.03h218.61"/><path id="path3279" d="m37.244 496.55h218.61"/><path id="path3281" d="m37.138 520.08h218.61"/><path id="path3283" d="m37.033 543.61h218.61"/><path id="path3285" d="m36.927 567.14h218.61"/></g><path id="path3297" fill="none" stroke="#000" stroke-width="1" d="m195.71 393.36h60.561" opacity=".5"/></g></g><metadata/></svg>