<svg xmlns="http://www.w3.org/2000/svg" xmlns:svg="http://www.w3.org/2000/svg" xmlns:xlink="http://www.w3.org/1999/xlink" id="svg2" version="1.1" viewBox="0 0 1277.6 1274.6"><title id="title17215">Kreide</title><defs id="defs4"><filter id="filter4133" color-interpolation-filters="sRGB"><feGaussianBlur id="feGaussianBlur4135" in="SourceGraphic" result="result0" stdDeviation=".5"/><feTurbulence id="feTurbulence4137" baseFrequency=".2" numOctaves="10" result="result1" seed="300" type="fractalNoise"/><feGaussianBlur id="feGaussianBlur4139" result="result91" stdDeviation=".5"/><feDisplacementMap id="feDisplacementMap4141" in="result0" in2="result91" result="result6" scale="5" xChannelSelector="R" yChannelSelector="A"/><feComposite id="feComposite4143" in="result6" in2="result1" operator="in" result="result2"/><feComposite id="feComposite4145" in="result0" in2="result2" k1="0" k2="0" k3="3" k4="0" operator="arithmetic" result="result92"/><feBlend id="feBlend4147" in2="result2" mode="multiply" result="fbSourceGraphic"/><feColorMatrix id="feColorMatrix4149" in="fbSourceGraphic" result="fbSourceGraphicAlpha" values="1 0 0 -1 0 1 0 1 -1 0 1 0 0 -1 0 -1.8 -0.5 0 5.7 -3.5"/><feGaussianBlur id="feGaussianBlur4151" in="fbSourceGraphicAlpha" result="result0" stdDeviation=".5"/><feDiffuseLighting id="feDiffuseLighting4153" diffuseConstant=".6" result="result5" surfaceScale="50"><feDistantLight id="feDistantLight4155" azimuth="225" elevation="10"/></feDiffuseLighting><feComposite id="feComposite4157" in="result5" in2="fbSourceGraphicAlpha" operator="in" result="result2"/><feComposite id="feComposite4159" in="fbSourceGraphic" in2="result2" k1="0" k2="1" k3=".7" k4="0" operator="arithmetic" result="result4"/></filter><linearGradient id="linearGradient17195" x1="523.43" x2="455.69" y1="369.64" y2="308.48" gradientTransform="translate(578.57 202.07)" gradientUnits="userSpaceOnUse" spreadMethod="reflect"><stop id="stop3908-4" offset="0" stop-opacity=".831"/><stop id="stop3916-5" offset=".034" stop-opacity=".536"/><stop id="stop3914-9" offset=".249" stop-opacity=".329"/><stop id="stop3918-5" offset=".764" stop-opacity=".082"/><stop id="stop3910-5" offset="1" stop-opacity="0"/></linearGradient><linearGradient id="linearGradient17197" x1="279.68" x2="277.51" y1="548.73" y2="571.07" gradientTransform="translate(578.57 202.07)" gradientUnits="userSpaceOnUse"><stop id="stop3938-0" offset="0" stop-opacity="0"/><stop id="stop3948-5" offset=".212" stop-opacity="0"/><stop id="stop3946-9" offset=".602" stop-opacity=".216"/><stop id="stop3944-3" offset=".92" stop-opacity=".261"/><stop id="stop3940-3" offset="1" stop-opacity=".401"/></linearGradient><linearGradient id="linearGradient17199" x1="523.43" x2="455.69" y1="369.64" y2="308.48" gradientTransform="translate(366.44 65.7)" gradientUnits="userSpaceOnUse" spreadMethod="reflect"><stop id="stop3908-0" offset="0" stop-opacity=".831"/><stop id="stop3916-8" offset=".034" stop-opacity=".536"/><stop id="stop3914-6" offset=".249" stop-opacity=".329"/><stop id="stop3918-3" offset=".764" stop-opacity=".082"/><stop id="stop3910-8" offset="1" stop-opacity="0"/></linearGradient><linearGradient id="linearGradient17201" x1="279.68" x2="277.51" y1="548.73" y2="571.07" gradientTransform="translate(366.44 65.7)" gradientUnits="userSpaceOnUse"><stop id="stop3938-7" offset="0" stop-opacity="0"/><stop id="stop3948-0" offset=".212" stop-opacity="0"/><stop id="stop3946-7" offset=".602" stop-opacity=".216"/><stop id="stop3944-4" offset=".92" stop-opacity=".261"/><stop id="stop3940-9" offset="1" stop-opacity=".401"/></linearGradient><linearGradient id="linearGradient17203" x1="523.43" x2="455.69" y1="369.64" y2="308.48" gradientUnits="userSpaceOnUse" spreadMethod="reflect"><stop id="stop3908" offset="0" stop-opacity=".831"/><stop id="stop3916" offset=".034" stop-opacity=".536"/><stop id="stop3914" offset=".249" stop-opacity=".329"/><stop id="stop3918" offset=".764" stop-opacity=".082"/><stop id="stop3910" offset="1" stop-opacity="0"/></linearGradient><linearGradient id="linearGradient17205" x1="279.68" x2="277.51" y1="548.73" y2="571.07" gradientUnits="userSpaceOnUse"><stop id="stop3938" offset="0" stop-opacity="0"/><stop id="stop3948" offset=".212" stop-opacity="0"/><stop id="stop3946" offset=".602" stop-opacity=".216"/><stop id="stop3944" offset=".92" stop-opacity=".261"/><stop id="stop3940" offset="1" stop-opacity=".401"/></linearGradient><linearGradient id="linearGradient17207" x1="523.43" x2="455.69" y1="369.64" y2="308.48" gradientTransform="translate(443.21 -631.31)" gradientUnits="userSpaceOnUse" spreadMethod="reflect"><stop id="stop3908-08" offset="0" stop-opacity=".831"/><stop id="stop3916-6" offset=".034" stop-opacity=".536"/><stop id="stop3914-92" offset=".249" stop-opacity=".329"/><stop id="stop3918-2" offset=".764" stop-opacity=".082"/><stop id="stop3910-4" offset="1" stop-opacity="0"/></linearGradient><linearGradient id="linearGradient17209" x1="279.68" x2="277.51" y1="548.73" y2="571.07" gradientTransform="translate(443.21 -631.31)" gradientUnits="userSpaceOnUse"><stop id="stop3938-79" offset="0" stop-opacity="0"/><stop id="stop3948-03" offset=".212" stop-opacity="0"/><stop id="stop3946-70" offset=".602" stop-opacity=".216"/><stop id="stop3944-9" offset=".92" stop-opacity=".261"/><stop id="stop3940-8" offset="1" stop-opacity=".401"/></linearGradient><linearGradient id="linearGradient17211" x1="523.43" x2="455.69" y1="369.64" y2="308.48" gradientTransform="translate(-199.25 -611.1)" gradientUnits="userSpaceOnUse" spreadMethod="reflect"><stop id="stop3908-6" offset="0" stop-opacity=".831"/><stop id="stop3916-2" offset=".034" stop-opacity=".536"/><stop id="stop3914-97" offset=".249" stop-opacity=".329"/><stop id="stop3918-4" offset=".764" stop-opacity=".082"/><stop id="stop3910-9" offset="1" stop-opacity="0"/></linearGradient><linearGradient id="linearGradient17213" x1="279.68" x2="277.51" y1="548.73" y2="571.07" gradientTransform="translate(-199.25 -611.1)" gradientUnits="userSpaceOnUse"><stop id="stop3938-00" offset="0" stop-opacity="0"/><stop id="stop3948-56" offset=".212" stop-opacity="0"/><stop id="stop3946-1" offset=".602" stop-opacity=".216"/><stop id="stop3944-98" offset=".92" stop-opacity=".261"/><stop id="stop3940-1" offset="1" stop-opacity=".401"/></linearGradient></defs><g id="layer1" transform="translate(310.89 101.51)"><path id="rect3847" fill="#3000ff" stroke="#000" stroke-linecap="round" stroke-linejoin="round" d="m-277.78-68.403c71.132-71.132 201.9 0 302.86 0 100.95 0 199.88 47.477 300.84 47.477 100.95 0 203.93-47.477 304.88-47.477s231.73-71.132 302.86 0c71.132 71.132 0 200.48 0 300.71 0 100.24 28.284 202.5 28.284 302.73 0 100.24-28.284 198.46-28.284 298.69 0 100.24 71.132 229.58 0 300.71-71.132 71.132-514.04-26.264-614.99-26.264h-35.167c-100.95 0-142.31 44.447-243.26 44.447s-246.88 52.949-318.01-18.183c-71.132-71.132 0-200.48 0-300.71 0-100.24 26.264-202.5 26.264-302.73 0-100.24-26.264-229.77-26.264-298.69 0-68.923-71.132-229.58 0-300.71z"/><g id="g17171" transform="translate(-63.64 115.16)"><g id="g4303" transform="translate(-881.86 -189.91)"><path id="path3755-9" fill="#fffb00" stroke="#000" stroke-linecap="round" stroke-linejoin="round" stroke-width=".85" d="m822.23 666.64c32.527-10.401 81.249-3.7906 101.39 35.254 8.731 19.313 8.8364 22.727 7.8557 42.536m-62.204 31.943c-11.583-1.7329-7.3168-1.2282-19.881-1.1688-9.9792-2.166-16.96-7.1123-29.794-7.5909-11.341-0.29417-12.986-5.7238-21.329-12.227-6.8502-4.2338-7.9641-4.3164-10.302-12.106-2.3377-7.7897-3.7562-15.787-3.3583-21.563 2.1401-29.243 21.919-47.282 40.192-63.459 111.22-110.3 224.78-224.44 334.96-336 22.306-18.856 51.043-20.795 77.555-5.6861s38.688 64.374 19.095 84.56c-109.87 119.03-220.13 242.35-331.57 359.74-12.61 3.8814-12.801 11.492-19.637 11.732-6.8444 0.24054-16.388 6.8604-23.968 5.0117z"/><path id="path3904-52" fill="url(#linearGradient17195)" d="m811.11 671.66c82.931-35.095 126.6 30.687 120.53 73.833 0.67898 3.9006-2.7937 8.8037-0.58577 8.0785 16.224-14.11 271.37-292.63 327.06-354.09 18.381-21.992 2.0556-65.945-13.68-77.924-21.921-16.688-55.63-23.299-84.891 0.78085-114.48 116.57-232.31 234.58-348.43 349.32z"/><path id="path3920-0" fill="url(#linearGradient17197)" d="m786.25 733.85c45.778 5.4953 102.85 12.295 145.37 9.9531-1.1517 4.4328 0.38145 8.6692-2.1555 12.409-4.2265 4.2168-12.547 8.9925-20.303 14.971l-14.921 3.979c-6.1796 2.4854-10.143 3.0236-12.6 2.3719l-14.832-1.3781c-7.8323-2.2004-11.555-0.66506-17.064-0.75313-7.7503-2.3904-14.849-4.6722-21.171-6.8246-5.5544-1.89-9.7475-0.2201-15.546-1.7353-7.3273-4.4618-10.414-10.379-14.832-10.842-3.4788-6.4589-10.765-18.178-11.941-22.151z"/></g><g id="g4248" transform="translate(-532.35 -47.477)"><path id="path3755-5" fill="#d14141" stroke="#000" stroke-linecap="round" stroke-linejoin="round" stroke-width=".85" d="m610.1 530.27c32.527-10.401 81.249-3.7906 101.39 35.254 8.731 19.313 8.8364 22.727 7.8557 42.536m-62.204 31.943c-11.583-1.7329-7.3168-1.2282-19.881-1.1688-9.9792-2.166-16.96-7.1123-29.794-7.5909-11.341-0.29417-12.986-5.7238-21.329-12.227-6.8502-4.2338-7.9641-4.3164-10.302-12.106-2.3377-7.7897-3.7562-15.787-3.3583-21.563 2.1401-29.243 21.919-47.282 40.192-63.459 111.22-110.3 224.78-224.44 334.96-336 22.306-18.856 51.043-20.795 77.555-5.6861s38.688 64.374 19.095 84.56c-109.87 119.03-220.13 242.35-331.57 359.74-12.61 3.8814-12.801 11.492-19.637 11.732-6.8444 0.24054-16.388 6.8604-23.968 5.0117z"/><path id="path3904-5" fill="url(#linearGradient17199)" d="m598.97 535.29c82.931-35.095 126.6 30.687 120.53 73.833 0.67898 3.9006-2.7937 8.8037-0.58577 8.0785 16.224-14.11 271.37-292.63 327.06-354.09 18.381-21.992 2.0556-65.945-13.68-77.924-21.921-16.688-55.63-23.299-84.891 0.78085-114.47 116.56-232.31 234.58-348.43 349.32z"/><path id="path3920-9" fill="url(#linearGradient17201)" d="m574.12 597.48c45.778 5.4953 102.85 12.295 145.37 9.9531-1.1517 4.4328 0.38145 8.6692-2.1555 12.409-4.2265 4.2168-12.547 8.9925-20.303 14.971l-14.921 3.979c-6.1796 2.4854-10.143 3.0236-12.6 2.3719l-14.832-1.3781c-7.8323-2.2004-11.555-0.66506-17.064-0.75313-7.7503-2.3904-14.849-4.6722-21.171-6.8246-5.5544-1.89-9.7475-0.2201-15.546-1.7353-7.3273-4.4618-10.414-10.379-14.832-10.842-3.4788-6.4589-10.765-18.178-11.941-22.151z"/></g><path id="path3896" fill="#fff" d="m225.58 580.91c-2.2576-0.14281-4.4805-0.15715-6.7527-0.31343l14.894 1.5585c-2.9519-0.78683-5.6042-1.0845-8.141-1.2451zm8.141 1.2451c0.736 0.19619 1.4477 0.3994 2.2271 0.66104 3.9766 1.335-0.82274 0.71642-6.4062-0.0714 1.1211 0.309 2.277 0.72554 3.5681 1.2982 6.7119 2.9772-10.196-0.99035-15.052-1.1324 0.12763 0.11876 0.99809 0.54832 1.3669 0.74818 3.6214 4.5792-6.0698-1.3414-3.2468 1.4538 3.1462 3.1153 5.0626-1.2033 5.8573 1.4903 0.0774 0.26247-14.465 0.63427-14.735 0.63647-3.076 0.14645-4.4303 0.19902-4.6825 0.22774 0.73265 0.0825 5.9228 0.32466 10.008 1.8816 1.9627 0.74802-5.9364-0.084-4.135 0.41056 5.3422 1.4666 6.9502 0.83649 6.9502 0.83649-3.8669 1.2797-1.339 1.1267-5.7256 1.1397-1.372 0.004-2.4294 0.38186-3.653 0.58894 6.1453 3.952-0.94151-0.86967-3.5685 1.8688-0.48021 0.50067 4.0479 1.0372 3.6459 1.6312-0.86286 1.275-3.9498-0.25238-5.1657 0.59531-0.2791 0.19475 1.4875 0.97014 2.21 1.4608l-11.706 0.0415c-1.1479 0.34233-5.5142-2.1725-3.4183 1.0417 0.48292 0.74062 0.91398 1.1502 1.3567 1.4391-4.3209-0.97036-9.0563-2.505-10.345 0.35247-1.3485 2.9907 8.2893 1.2125 13.195 2.9719 1.0655 0.38218-0.77211 1.082-1.4586 1.2478-2.0209 0.48791-4.437 0.48578-6.6524 0.71267 1.5316 0.6587 5.553 1.7392 4.6122 1.9517-2.9162 0.65831-32.499-0.92899-32.56-0.8301-2.2514 3.6477 10.619 0.4214 17.764 3.501 4.1447 1.7863-5.6955 0.3552-8.577 0.47263-3.2573 0.13269-6.5318 0.18126-9.8142 0.27932 1.3498 0.63312 3.973 0.74092 4.0229 1.9116 0.0823 1.9312-2.6978 0.52166-3.9375 0.93362-4.7546 1.5804-9.1793 3.5762-13.628 5.5533-0.92983 0.59507-4.3186 2.6139-4.9629 3.667-0.28413 0.46435 0.26133 1.9232-0.20122 2.1705-1.7858 0.95471-5.5456-0.54079-6.4685 1.4532-0.36824 0.79562 3.7002 0.50988 4.611 2.4976 1.2079 2.6363-1.7627 1.1992-2.6429 1.7861-4.6613 0.18992-10.334-0.9704-13.975 0.57891-1.2002 0.51061 3.4702-0.12471 6.4792 2.5882 1.8971 1.7104-0.9417 1.3655-1.654 1.7441-1.2839 0.6824-3.1966 0.58389-4.3316 1.4529-0.37906 0.29042-0.10736 1.3254-0.15715 1.9915-1.4799 0.5661-2.9657 1.1339-4.4456 1.7 1.5077 0.85327 5.3667 2.3711 4.541 2.5657-4.912 1.1512-11.853-0.48064-16.987 0.37418-0.36175 0.0603 0.16957 1.54 0.9445 2.2484 1.7696 1.6175 4.7487 1.8933 4.4055 2.6293-0.94029 2.0164-4.4448 0.9136-6.4166 1.6752-1.1541 0.44565-1.9869 1.2967-2.9816 1.9451l-18.537 0.45083c-1.1313 0.59589-5.6344 0.7708-3.3981 1.7712 6.1902 2.769 9.5546 1.0244 15.681 3.687 3.8951 1.6928-9.0142 2.6315-5.3129 4.0072 7.008 2.6047 12.315 2.5596 18.466 3.8399-5.8132 0.1903-11.646 0.37019-17.459 0.56052 2.4647 3.1069 3.6322 4.1063 1.5526 4.6195-4.0122 0.99013-10.223-0.91533-13.357 1.2034-1.0622 0.71825 4.3541 1.6573 6.9035 3.1631 0.92716 0.54759 2.1765 1.8939 3.2743 2.8436-2.9958 1.0828-4.7104 1.6489-5.9786 2.0326 0.9782 0.006 1.5278 0.51347-0.36161 2.6328-0.99265 1.1135-6.3903-1.8032-3.7662 2.4014 2.4272 3.889 8.3899 2.4929 7.3505 3.3755-2.867 2.4344-9.0937 0.50614-13.111 1.475-1.51 0.36437-2.2705 1.6991-3.4129 2.5346-18.44 4.6826-0.05953-0.69448-12.576 4.4963-2.1703 0.9-6.6838-0.93169-6.8806 2.2625-0.09844 1.5909 4.096 0.30213 6.549 3.5759 2.2731 3.034-1.1155 1.8862-1.7806 2.7184-0.76021 0.95125-1.6704 1.7634-2.4985 2.6332-5.3014-3.7483 1.0172 5.0064-0.2435 5.4803-0.41556 0.1562-0.71596 0.25447-1.1097 0.3978 2.9815 0.79598 5.985 2.5509 8.4711 5.9635 9.356 12.842-10.448 0.89283-15.636 1.3761-4.6963 0.43746-9.3284 0.93607-13.994 1.4149 4.2352 1.325 6.3422-3.2823 12.706 3.958 5.667 6.4478-4.9245 1.4013-7.3039 2.1973-1.9769 0.7542-3.9475 1.4641-5.9245 2.2183-0.29704 0.94953-0.15624 2.4328-0.90124 2.851-7.9601 4.4708-10.387-3.9429-7.0188 5.5294 14.101 16.386-1.5049-2.3343-13.094 4.8979-1.1781 0.73525 5.0659 2.461 7.5943 3.6833-1.9242 0.84359-3.8022 1.7043-5.7766 2.4831-2.1935 0.86515-12.235-3.176-6.7282 2.4548 6.6765 6.8272 8.7711 2.7461 13.155 4.1341-6.3852 0.3746-14.013-0.87446-19.171 1.1358-1.2932 0.50389 4.0435 0.0859 7.2782 3.4798 2.2602 2.3715-0.34608 2.4893-1.2613 2.8265-3.3909 1.2496-8.5033 0.22947-11.56 1.908-0.32119 0.17645 1.5455 2.0881 2.3024 3.1416-3.2253 0.72315-6.4774 1.4566-9.7027 2.1799-0.3098 0.97442-0.86113 1.7342-0.94076 2.9575-0.05395 0.82637 0.96049 2.6951 0.56058 3.1324-0.01887 0.0189-11.347 4.9889-11.399 5.1224-0.18529 0.47766 2.2072 2.2654 3.3059 3.3918-2.0001 0.87837-3.9844 1.7726-5.9844 2.651-2.0999 0.86031-5.2287 0.48699-6.3399 2.5541-0.21632 0.40238 2.0788 2.314 3.1049 3.4509 0.27871 1.0458 1.2756 2.8482 0.8552 3.1524-2.1777 1.5752-5.5531 1.6616-8.4305 2.3391-3.3821 0.7966-8.1857-0.26915-10.353 2.0628-0.56775 0.61088 3.4671 2.3309 5.2068 3.4846 26.303 8.781 6.1701 0.86944-8.8712 5.185-0.95627 0.27466 3.5973 0.87385 5.6301 3.5498 1.8285 2.4069-0.29045 2.1533-0.64839 3.0138-1.9083 4.5888-3.4067 3.417-8.9784 5.3233 14.678 12.259-20.449-5.0583-10.934 5.0448 7.1164 7.5556 25.786 1.3178-0.35423 6.2008-12.32 2.3013-12.604-4.2057-11.259 4.9863 4.8426 10.344-4.0094-9.5771-3.3343 5.4886 0.05574 1.2454 3.3661 2.2602 5.0477 3.401-6.9939 0.32753-15.249-0.97533-21.004 1.0111-1.3676 0.47185 4.7721-0.29996 7.5288 3.6789 2.7709 3.9988-2.1226 1.6795-3.1837 2.5502 20.591 6.8886 9.0356 1.6248 2.3527 6.0208-0.32712 0.21523 1.7316 2.6206 1.5235 2.9794-0.92436 1.5933-3.286 1.4693-4.6918 2.4841-0.99209 0.71619-4.4485-0.62841-2.538 2.7397 1.5982 2.817 4.2348 2.6522 6.3277 3.9612-5.1891 0.63691-10.38 1.2534-15.569 1.8903 2.0535 1.4278 7.0104 3.833 6.1132 4.2379-5.2337 2.3625-17.288-4.0006-19.642 1.8318-1.4494 3.591 14.01-2.0076 16.679 5.6114 3.26 9.3069-8.9882 2.0517-13.779 2.7036-2.7632 0.37594-5.5929 0.69674-8.4427 0.95499 2.8057 0.46913 6.1357 2.3627 10.604 7.601 11.03 12.93-10.48 1.6895-15.708 2.5361-5.2778 0.85454-11.325 0.74585-15.844 2.5997-1.0923 0.44798-0.6305 2.7419-0.79307 4.278-0.14752 1.3955 0.8976 4.1278-0.11692 4.506-5.6943 2.123-13.164 1.9241-19.74 2.8808 1.655 1.787 3.9339 3.4675 4.9605 5.3244 1.4255 2.5793 0.60192 3.4572 0.80073 5.078 0.72979 5.9475 1.025 8.0477-1.8224 10.761-2.3831 2.2709-7.4037 1.403-8.6002 5.0578-0.26979 0.82441 3.242 4.2923 4.8576 6.4459-5.4034 1.6726-15.266-1.9246-16.224 5.0128-0.4628 3.3521 10.26 0.38907 14.488 7.5374 4.8715 8.2372-4.0486 4.386-6.4003 6.1538-3.0625 2.3022-6.2184 4.4764-9.8466 6.0652-0.62056 0.27175-1.2463 0.52442-1.8548 0.74763l8.5257 0.57957 8.1686 7.7224 8.8828-6.5633 7.4543 5.2224 9.5971-4.0633 6.3828 4.8653 6.3828 4.151 12.097-1.9204-1.1172 6.2939 8.5257-2.9919 9.24 1.651 7.4543 0.57956 9.24 3.0796 11.026-1.2062 9.5971 4.5082 14.954-12.635c2.548-1.7605 5.1708-3.4447 6.8959-6.193 1.0148-1.6169 1.625-3.7039 1.8037-6.2479 0.11712-1.6706-1.6576-5.3461-0.9202-6.3239 2.2195-2.9425 6.3931-3.4715 9.5959-5.2086-1.7532-2.0506-5.862-5.7036-5.2708-6.1464 4.5765-3.4255 12.756-2.2023 18.717-3.8604 3.8004-1.0572 9.3689-0.13118 10.591-4.3037 0.39389-1.3436-8.4519-4.531-7.743-5.5136 7.458-10.336 26.125 7.1105 8.3919-8.5667 7.0035-0.795 15.511 0.36046 21.025-2.3931 0.88052-0.43968-4.4569-3.5685-6.4675-4.8808-3.081-2.0108-9.4627-3.5437-8.7613-5.0003 1.8435-3.8279 8.416-1.8796 12.542-2.8969 12.329-3.0401 9.3621-2.2182 19.56-6.3149 6.9118-0.68568 16.915 2.5709 20.74-2.0484 1.8559-2.2409-7.8338-0.0219-14.481-5.5348-3.8381-3.1832 1.8187-2.984 3.3848-3.665 3.4223-1.4886 7.4512-2.1403 11.516-2.7847 5.9431-0.94224 17.412 4.8736 18.466-1.9482 0.72615-4.7011-11.535-3.6182-17.317-5.3999-4.6278-1.5855-16.74-3.756-13.907-4.7313 7.8711-2.7089 19.988 0.23942 29.293-0.55687 2.863-0.24493 11.762 4.418 7.1629-2.5709-4.4578-6.7741-12.443-1.4722-11.642-4.1405 2.4411-8.1322 21.41 3.9514 24.265-3.7381-2.0012-1.149-3.7417-0.52084-5.997-3.4655-2.0225-2.6403 0.60631-2.0328 1.2523-2.6815 1.1061-1.1105 3.6329-0.54447 3.9716-2.533 0.08883-0.52259-2.5305-2.1327-2.9921-3.152-3.8896-8.5868 16.739 3.966 9.0721-5.2442-4.6359-1.4462-16.989-3.605-13.897-4.3666 9.2426-2.2764 23.188 1.8389 32.563-0.26184 2.7782-0.62128-7.8199-1.8825-12.559-4.2028-0.74085-0.36276-3.0803-2.9371-2.8826-3.3266 1.0177-2.0044 3.9333-1.7115 5.8816-2.5852 1.8733-0.84005 3.6894-1.7174 5.552-2.5712-2.0527-1.1676-5.2753-1.1176-6.128-3.4744-1.278-3.5322 2.8308-1.5304 3.9457-2.644 0.73063-0.72989 1.1357-1.2611 1.3244-1.7301 3.7484-0.19761 9.5757-0.84831 18.543-2.125 2.3044-0.32806 5.1592-0.0801 5.8985-2.3292 0.21635-0.65816-2.7172-2.1445-4.0724-3.2255 0.66731-0.92533 1.9787-1.1196 1.9815-2.7775 0.00087-0.55837-2.2746-2.9764-1.9705-3.1918 6.8394-4.8433 21.637 0.21406 24.044-10.197-2.7833-1.3242-5.3559-2.2644-8.3641-3.9904-1.4998-0.86121-5.7356-3.3553-5.06-3.7295 3.8646-2.1405 10.483-0.65046 15.104-1.8127 1.6271-0.40923 7.2432 1.4526 3.6296-2.8475-4.1908-4.987-6.217-2.6358-9.3203-3.9462 6.9126-0.38602 13.806-0.7901 20.719-1.1762-4.0032-1.3479-10.478 1.0875-12.009-4.0562-1.9274-6.4745 7.0172-1.0237 10.215-1.963 1.8121-0.5329 3.2174-1.6359 4.8205-2.439 0.54233-0.9005 0.6033-2.3324 1.6124-2.657 11.482-3.6938 22.519 1.017-3.7513-6.2615 2.8834-0.73107 5.8023-1.4813 8.6856-2.2126-2.0103-1.181-6.8755-3.0248-6.023-3.5765 1.3541-0.87631 15.515 1.662 15.961-4.4846 0.0424-0.58206-1.5357-2.6239-1.4467-3.1562 0.25685-1.5365 1.5983-1.8019 2.4048-2.7124 0.44151-0.91333 0.50703-2.2863 1.3528-2.7111 2.3465-1.1788 7.0712 0.59826 8.1833-2.0647 0.43465-1.0411-3.9611-2.2593-5.9361-3.3886 2.205-0.73837 4.4092-1.4694 6.6142-2.2078 4.615-0.79434 23.598 5.0708 14.555-1.4495-11.692-8.4304-15.852-3.445-23.774-5.1836 8.7221-0.14684 17.441-0.29517 26.163-0.44202-3.4371-1.3048-11.842-2.558-10.309-3.9043 3.4592-3.0378 11.064-0.76496 16.363-1.4359 3.4487-0.43669 17.064 4.6121 9.8833-1.9128-8.7244-7.9271-34.657-1.9308-4.607-6.2469-2.2785-1.1716-8.0108-3.0382-6.8482-3.5234 4.8223-2.0123 12.119-0.80775 18.156-1.2048-2.8544-1.1913-8.9014-1.4282-8.5877-3.5688 0.81998-5.5959 13.4 2.5783 10.557-7.4366 0.34798-0.89585 1.1186-1.322 1.0536-2.6586-0.22042-4.5284-5.7931-3.7-0.29944-5.7356 5.7228-2.1205 13.717-0.4403 15.975-6.8135 0.88006-0.79292-10.38 1.5478-9.4835 0.77503 0.88596-0.76359 4.9166 1.1955 2.7005-2.1826-2.1033-3.2059 8.097-5.1304 6.0684-6.1036 4.6943-0.36811-2.7845 2.4273 1.9097 2.0592 1.3382-0.23952 5.7046 1.5517 3.047-1.9406-2.8271-3.7151-4.4605-1.8773-6.6947-2.8213 3.0818-0.43835 9.7778 3.2226 9.2883-1.3344-0.37093-3.4526-4.7238 2-9.7132-2.9173-4.0918-4.0326 3.2622-1.2456 5.159-1.5422 3.504-0.54806 7.8046-0.0942 11.042-0.99669 0.46524-0.12965 0.60844-0.80928-0.10242-2.0455-0.53877-0.93694 4.9309-1.9379 4.1139-2.7054 0.96407-0.13024-3.0279-1.9767-3.9964-6.0233-0.17203-0.71879-1.7521-1.5007-2.6208-2.2531 0.18022-0.62732 0.33262-1.2671 0.51277-1.8945 2.4704-0.36523 6.3611 1.0107 7.4324-1.0965 7.7909 1.1835-6.8454-2.2934-5.6021-2.4194 7.4247-0.75218 17.195 1.7538 24.293 0.55929 2.2918-0.38576-6.1561-1.4478-9.7719-3.0305-0.5219-0.22847-1.4092-1.4789-2.1298-2.2197-2.2398-0.90309-4.4944-1.8117-6.7343-2.7148 2.8912-0.38323 5.8179-0.69989 8.6527-1.1591 2.2652-0.36693 10.15 4.3781 6.6581-1.3312-3.328-5.4407-7.9886 1.1902-9.2549-2.8861-3.1162-10.03 20.446 9.8167 6.1838-7.9523 2.206 1.2019 6.4782 3.0697 6.6529 2.9641-0.0753-0.0816-0.44185-0.30183-1.0768-0.65565-2.9324-1.634 3.4591-0.48278 5.0528-0.89422 0.98041-0.25249-16.547-7.0949-15.431-7.1647 4.0992-0.25639 9.4292 1.1559 12.915 0.0771-0.81289 0.14116-4.5324 0.6716-6.2422-2.1717-2.2757-3.7843 2.91-0.62302 4.3654-0.94095 3.9365-0.97847-0.84112-2.6294 0.33913-3.326-3.8218 0.12984-9.3647-0.0944-8.3-2.3844 1.4144-3.0422 19.152 4.7989 12.179-0.77379-7.5136-6.0052 12.42 2.6108 11.12-1.7195 1.3165-5.0506-20.074-6.3028-15.962-7.0916 0.34361-0.0657-1.5203-0.6956-2.1355-1.6013-2.5864-3.807 18.312 4.1022 4.0211-1.2192 7.5116 0.47583 15.406 1.5756 22.494 1.4564-9.9859-2.0767-11.01-2.5582-9.5767-2.4712-3.1681-0.15151-6.3294-0.21829-10.795-2.4448-4.8768-2.4316 7.0044 0.46796 9.8706-0.12987-0.13138-0.21337-2.3727-1.0805-2.2755-1.4652 0.27825-1.1009-2.9104-1.4768-1.9605-1.7714 7.3585 0.43957-1.4293-0.50367 5.6804-0.41472 0.62809 0.008 1.9186-0.65922 1.0804-0.98224-1.1392-0.43895-17.481-3.0351-5.1889-2.7189 18.548 0.47706 11.954 0.92054-4.8457-2.9504-18.043-4.2572 7.202 0.1528 8.989-0.22621 1.0941-0.23206 0.81177-0.17037 1.699-0.35774 0.22601 0.0181 0.37012-0.0698 0.40416-0.15454 3.941-0.83192 7.1547-1.5225 7.4664-1.6402-0.549-0.0116-4.2493 0.43606-8.3896 0.63098-0.45164-0.36366-1.0493-0.77928-1.92-1.3682-1.9051-0.44431-2.6692 2.17-5.7027-1.3342-2.8682-3.3131 3.0965 0.0905 4.3856-0.21151 0.0942-0.0233-0.50515-0.65156-0.41757-0.68364 3.1281-1.1461 21.217 1.2249 3.8868-1.7015l-70.22-7.3945zm54.412 43.123c2.7093-0.0921 4.5723-0.36677 2.5524-0.33614-1.494 0.0226-2.2322 0.14718-2.5524 0.33614zm-240.34 89.41c-11.09-2.9608-21.313 7.7587 0 0zm31.84-33.984c-1.4941-0.01-3.7197 1.1254 0 0zm149.92-97.96c-2.1683-0.5976-4.0831-0.75023-5.9003-0.80152 1.8762 0.24446 3.8778 0.51614 5.9003 0.80152zm-9.9483-1.2587c-1.6701-0.10989-6.6292-0.37824-4.7976-0.0349 3.1672 0.59387 5.83 0.41399 8.6491 0.47876-1.5042-0.19417-2.905-0.38182-3.8516-0.44386zm72.188 10.623c1.4687 0.10804 5.6788 1.7135 8.8971 2.8254-3.623 0.003-7.0875-0.34664-8.5462-1.6002-1.1212-0.96349-1.0786-1.2787-0.35091-1.2252zm-99.628 8.6986c0.43713-0.0196 0.88132 0.0293 1.3354 0.19999-0.55664-0.009-1.1732-0.0636-1.7982-0.15868 0.15315-0.0114 0.3093-0.0344 0.46283-0.0413zm110.25 8.6957c1.8795 0.17667 5.7299 0.81137 5.1847 0.68007-1.8824-0.45319-3.5384-0.59752-5.1847-0.68007zm-434.99 282c-1.3018-0.0183-2.4984 0.27654-3.6858 0.58671 1.6593-0.13678 3.275-0.2806 4.9252-0.42965-0.4287-0.0663-0.83185-0.15137-1.2394-0.15703zm-3.784 0.58003c-2.5661 0.21148-5.124 0.40112-7.6672 0.64369 2.9261 0.8147 5.2471-0.007 7.6672-0.64369z" filter="url(#filter4133)"/><g id="g4163" transform="matrix(.85048 0 .29993 1.2139 -217.28 -74.918)"><g id="g4436" transform="translate(94.954 -18.183)"><path id="path3755" fill="#fff" stroke="#000" stroke-linecap="round" stroke-linejoin="round" stroke-width=".85" d="m243.66 464.57c32.527-10.401 81.249-3.7906 101.39 35.254 8.731 19.313 8.8364 22.727 7.8557 42.536m-62.204 31.943c-11.583-1.7329-7.3168-1.2282-19.881-1.1688-9.9792-2.166-16.96-7.1123-29.794-7.5909-11.341-0.29417-12.986-5.7238-21.329-12.227-6.8502-4.2338-7.9641-4.3164-10.302-12.106-2.3377-7.7897-3.7562-15.787-3.3583-21.563 2.1401-29.243 21.919-47.282 40.192-63.459 111.21-110.29 327.35-333.44 437.53-445 22.31-18.862 61.08-35.78 88.19-19.006 27.11 16.773 36.27 54.387 16.68 74.573-109.87 119.03-330.93 374.66-442.36 492.06-12.61 3.8814-12.801 11.492-19.637 11.732-6.8444 0.24054-16.388 6.8604-23.968 5.0117z"/><path id="path3904" fill="url(#linearGradient17203)" d="m232.54 469.59c82.931-35.095 126.6 30.687 120.53 73.833 0.67898 3.9006-2.7937 8.8037-0.58577 8.0785 16.22-14.11 380.7-420.79 436.39-482.25 18.38-21.993 7.72-61.785-8.02-73.764-21.92-16.688-68.93-9.152-98.19 14.928-114.48 116.57-334.01 344.44-450.12 459.18z"/><path id="path3920" fill="url(#linearGradient17205)" d="m207.68 531.78c45.778 5.4953 102.85 12.295 145.37 9.9531-1.1517 4.4328 0.38145 8.6692-2.1555 12.409-4.2265 4.2168-12.547 8.9925-20.303 14.971l-14.921 3.979c-6.1796 2.4854-10.143 3.0236-12.6 2.3719l-14.832-1.3781c-7.8323-2.2004-11.555-0.66506-17.064-0.75313-7.7503-2.3904-14.849-4.6722-21.171-6.8246-5.5544-1.89-9.7475-0.2201-15.546-1.7353-7.3273-4.4618-10.414-10.379-14.832-10.842-3.4788-6.4589-10.765-18.178-11.941-22.151z"/></g></g><g id="g4358" transform="translate(-309.11 669.73)"><path id="path3755-0" fill="#44a6ff" stroke="#000" stroke-linecap="round" stroke-linejoin="round" stroke-width=".85" d="m686.87-166.74c32.527-10.401 81.249-3.7906 101.39 35.254 8.731 19.313 8.8364 22.727 7.8557 42.536m-62.204 31.943c-11.583-1.7329-7.3168-1.2282-19.881-1.1688-9.9792-2.166-16.96-7.1123-29.794-7.5909-11.341-0.29417-12.986-5.7238-21.329-12.227-6.8502-4.2338-7.9641-4.3164-10.302-12.106-2.3377-7.7897-3.7562-15.787-3.3583-21.563 2.1401-29.243 21.919-47.282 40.192-63.459 111.22-110.3 224.78-224.44 334.96-336 22.306-18.856 51.043-20.795 77.555-5.6861s38.688 64.374 19.095 84.56c-109.87 119.03-220.13 242.35-331.56 359.74-12.61 3.8814-12.801 11.492-19.637 11.732-6.8444 0.24054-16.388 6.8604-23.968 5.0117z"/><path id="path3904-6" fill="url(#linearGradient17207)" d="m675.75-161.72c82.931-35.095 126.6 30.687 120.53 73.833 0.67898 3.9006-2.7937 8.8037-0.58577 8.0785 16.224-14.11 271.37-292.63 327.06-354.09 18.381-21.992 2.0556-65.945-13.68-77.924-21.921-16.688-55.63-23.299-84.891 0.78085-114.48 116.57-232.31 234.58-348.43 349.32z"/><path id="path3920-7" fill="url(#linearGradient17209)" d="m650.89-99.528c45.778 5.4953 102.85 12.295 145.37 9.9531-1.1517 4.4328 0.38145 8.6692-2.1555 12.409-4.2265 4.2168-12.547 8.9925-20.303 14.971l-14.921 3.979c-6.1796 2.4854-10.143 3.0236-12.6 2.3719l-14.832-1.3781c-7.8323-2.2004-11.555-0.66506-17.064-0.75313-7.7503-2.3904-14.849-4.6722-21.171-6.8246-5.5544-1.89-9.7475-0.2201-15.546-1.7353-7.3273-4.4618-10.414-10.379-14.832-10.842-3.4788-6.4589-10.765-18.178-11.941-22.151z"/></g><g id="g4413" transform="translate(479.82 679.83)"><path id="path3755-90" fill="#4c0" stroke="#000" stroke-linecap="round" stroke-linejoin="round" stroke-width=".85" d="m44.416-146.53c32.527-10.401 81.249-3.7906 101.39 35.254 8.731 19.313 8.8364 22.727 7.8557 42.536m-62.204 31.943c-11.583-1.7329-7.3168-1.2282-19.881-1.1688-9.9792-2.166-16.96-7.1123-29.794-7.5909-11.341-0.29417-12.986-5.7238-21.329-12.227-6.8502-4.2338-7.9641-4.3164-10.302-12.106-2.3444-7.792-3.7629-15.789-3.365-21.565 2.1401-29.243 21.919-47.282 40.192-63.459 111.22-110.3 224.78-224.44 334.96-336 22.306-18.856 51.043-20.795 77.555-5.6861s38.688 64.374 19.095 84.56c-109.87 119.03-220.13 242.35-331.57 359.74-12.61 3.8814-12.801 11.492-19.637 11.732-6.8444 0.24054-16.388 6.8604-23.968 5.0117z"/><path id="path3904-7" fill="url(#linearGradient17211)" d="m33.29-141.52c82.931-35.095 126.6 30.687 120.53 73.833 0.67898 3.9006-2.7937 8.8037-0.58577 8.0785 16.224-14.11 271.37-292.63 327.06-354.09 18.381-21.992 2.0556-65.945-13.68-77.924-21.921-16.688-55.63-23.299-84.891 0.78085-114.48 116.57-232.31 234.58-348.43 349.32z"/><path id="path3920-8" fill="url(#linearGradient17213)" d="m8.4345-79.325c45.778 5.4953 102.85 12.295 145.37 9.9531-1.1517 4.4328 0.38145 8.6692-2.1555 12.409-4.2265 4.2168-12.547 8.9925-20.303 14.971l-14.921 3.979c-6.1796 2.4854-10.143 3.0236-12.6 2.3719l-14.831-1.378c-7.832-2.2-11.555-0.665-17.064-0.753-7.75-2.39-14.849-4.672-21.171-6.824-5.555-1.89-9.748-0.221-15.547-1.736-7.327-4.461-10.413-10.379-14.832-10.842-3.479-6.459-10.765-18.178-11.94-22.151z"/></g></g></g><metadata/></svg>