<svg xmlns="http://www.w3.org/2000/svg" xmlns:ns1="http://sozi.baierouge.fr" xmlns:svg="http://www.w3.org/2000/svg" xmlns:xlink="http://www.w3.org/1999/xlink" id="svg2" version="1.1" viewBox="0 0 788.88 1095.7"><defs id="defs4"><filter id="filter3845" color-interpolation-filters="sRGB"><feGaussianBlur id="feGaussianBlur3847" stdDeviation="8.991"/></filter></defs><g id="layer1" transform="translate(16.579 18.735)"><path id="path3763" style="filter:url(#filter3845);fill:#000" d="m4.9996 2.8435v1052.5h745.72v-1052.5h-681.34c0.96912 2.4063 1.5312 5.0281 1.5312 7.7813 0 11.519-9.3555 20.875-20.875 20.875-11.519 0-20.844-9.3555-20.844-20.875 0-2.7531 0.53088-5.375 1.5-7.7813h-25.688zm43.968 70.374c0.3555-0.01802 0.70252 0 1.0625 0 11.519 0 20.875 9.3243 20.875 20.844 0 11.519-9.3555 20.844-20.875 20.844-11.519 0-20.844-9.3243-20.844-20.844 0-11.159 8.7606-20.285 19.781-20.844zm1.0625 83.406c11.519 0 20.875 9.3555 20.875 20.875 0 11.519-9.3555 20.844-20.875 20.844-11.519 0-20.844-9.3243-20.844-20.844 0-11.519 9.3243-20.875 20.844-20.875zm0 83.438c11.519 0 20.875 9.3555 20.875 20.875 0 11.519-9.3555 20.844-20.875 20.844-11.519 0-20.844-9.3243-20.844-20.844 0-11.519 9.3243-20.875 20.844-20.875zm0 83.438c11.519 0 20.875 9.3243 20.875 20.844 0 11.519-9.3555 20.875-20.875 20.875-11.519 0-20.844-9.3555-20.844-20.875 0-11.519 9.3243-20.844 20.844-20.844zm0 83.438c11.519 0 20.875 9.3243 20.875 20.844 0 11.519-9.3555 20.875-20.875 20.875-11.519 0-20.844-9.3555-20.844-20.875 0-11.519 9.3243-20.844 20.844-20.844zm-1.0625 83.438c0.3555-0.018 0.70252 0 1.0625 0 11.519 0 20.875 9.3243 20.875 20.844 0 11.519-9.3555 20.875-20.875 20.875-11.519 0-20.844-9.3555-20.844-20.875 0-11.16 8.7606-20.285 19.781-20.844zm1.0625 83.406c11.519 0 20.875 9.3555 20.875 20.875 0 11.519-9.3555 20.844-20.875 20.844-11.519 0-20.844-9.3243-20.844-20.844 0-11.519 9.3243-20.875 20.844-20.875zm0 83.438c11.519 0 20.875 9.3555 20.875 20.875 0 11.519-9.3555 20.844-20.875 20.844-11.519 0-20.844-9.3243-20.844-20.844 0-11.519 9.3243-20.875 20.844-20.875zm0 83.438c11.519 0 20.875 9.3243 20.875 20.844 0 11.519-9.3555 20.875-20.875 20.875-11.519 0-20.844-9.3555-20.844-20.875 0-11.519 9.3243-20.844 20.844-20.844zm0 83.438c11.519 0 20.875 9.3243 20.875 20.844 0 11.519-9.3555 20.875-20.875 20.875-11.519 0-20.844-9.3555-20.844-20.875 0-11.519 9.3243-20.844 20.844-20.844zm0 83.438c11.519 0 20.875 9.3243 20.875 20.844 0 11.519-9.3555 20.875-20.875 20.875-11.519 0-20.844-9.3555-20.844-20.875 0-11.519 9.3243-20.844 20.844-20.844zm0 83.406c11.519 0 20.875 9.3555 20.875 20.875s-9.3555 20.844-20.875 20.844c-11.519 0-20.844-9.3242-20.844-20.844s9.3243-20.875 20.844-20.875z"/><g id="g3804" transform="translate(0,-2)"><path id="rect2816" style="fill:#fff6d5" d="m0-0.15625v1052.5h745.72v-1052.5h-681.34c0.96912 2.4063 1.5312 5.0281 1.5312 7.7812 0 11.519-9.3555 20.875-20.875 20.875-11.519 0-20.844-9.3555-20.844-20.875 0-2.7531 0.53088-5.375 1.5-7.7812h-25.688zm43.969 70.375c0.3555-0.01802 0.70252 0 1.0625 0 11.519 0 20.875 9.3243 20.875 20.844 0 11.519-9.3555 20.844-20.875 20.844-11.519 0-20.844-9.3243-20.844-20.844 0-11.159 8.7606-20.285 19.781-20.844zm1.0625 83.406c11.519 0 20.875 9.3555 20.875 20.875 0 11.519-9.3555 20.844-20.875 20.844-11.519 0-20.844-9.3243-20.844-20.844 0-11.519 9.3243-20.875 20.844-20.875zm0 83.438c11.519 0 20.875 9.3555 20.875 20.875 0 11.519-9.3555 20.844-20.875 20.844-11.519 0-20.844-9.3243-20.844-20.844 0-11.519 9.3243-20.875 20.844-20.875zm0 83.438c11.519 0 20.875 9.3243 20.875 20.844 0 11.519-9.3555 20.875-20.875 20.875-11.519 0-20.844-9.3555-20.844-20.875 0-11.519 9.3243-20.844 20.844-20.844zm0 83.438c11.519 0 20.875 9.3243 20.875 20.844 0 11.519-9.3555 20.875-20.875 20.875-11.519 0-20.844-9.3555-20.844-20.875 0-11.519 9.3243-20.844 20.844-20.844zm-1.0625 83.438c0.3555-0.018 0.70252 0 1.0625 0 11.519 0 20.875 9.3243 20.875 20.844 0 11.519-9.3555 20.875-20.875 20.875-11.519 0-20.844-9.3555-20.844-20.875 0-11.16 8.7606-20.285 19.781-20.844zm1.0625 83.406c11.519 0 20.875 9.3555 20.875 20.875 0 11.519-9.3555 20.844-20.875 20.844-11.519 0-20.844-9.3243-20.844-20.844 0-11.519 9.3243-20.875 20.844-20.875zm0 83.438c11.519 0 20.875 9.3555 20.875 20.875 0 11.519-9.3555 20.844-20.875 20.844-11.519 0-20.844-9.3243-20.844-20.844 0-11.519 9.3243-20.875 20.844-20.875zm0 83.438c11.519 0 20.875 9.3243 20.875 20.844 0 11.519-9.3555 20.875-20.875 20.875-11.519 0-20.844-9.3555-20.844-20.875 0-11.519 9.3243-20.844 20.844-20.844zm0 83.438c11.519 0 20.875 9.3243 20.875 20.844 0 11.519-9.3555 20.875-20.875 20.875-11.519 0-20.844-9.3555-20.844-20.875 0-11.519 9.3243-20.844 20.844-20.844zm0 83.438c11.519 0 20.875 9.3243 20.875 20.844 0 11.519-9.3555 20.875-20.875 20.875-11.519 0-20.844-9.3555-20.844-20.875 0-11.519 9.3243-20.844 20.844-20.844zm0 83.406c11.519 0 20.875 9.3555 20.875 20.875s-9.3555 20.844-20.875 20.844c-11.519 0-20.844-9.3242-20.844-20.844 0-11.519 9.3243-20.875 20.844-20.875z"/><g id="g3777"><path id="path2880" style="stroke:#f55;stroke-width:3;fill:none" d="m127.28 0.0030656v1052.4"/><path id="path3656" style="stroke:#f55;stroke-width:1.7583;fill:none" d="m744.38 134.38h-616.49"/><path id="path3658" style="stroke:#f55;stroke-width:1.7583;fill:none" d="m744.38 970.38h-616.49"/><path id="path3660" style="stroke:#5f8dd3;stroke-width:1.7583;fill:none" d="m744.38 534.21h-616.49"/><use id="use3682" width="744.094" height="1052.362" x="0" y="0" transform="translate(0 -36.348)" xlink:href="#path3660"/><use id="use3684" width="744.094" height="1052.362" x="0" y="0" transform="translate(0 -72.696)" xlink:href="#path3660"/><use id="use3686" width="744.094" height="1052.362" x="0" y="0" transform="translate(0 -109.04)" xlink:href="#path3660"/><use id="use3688" width="744.094" height="1052.362" x="0" y="0" transform="translate(0 -145.39)" xlink:href="#path3660"/><use id="use3690" width="744.094" height="1052.362" x="0" y="0" transform="translate(0 -181.74)" xlink:href="#path3660"/><use id="use3692" width="744.094" height="1052.362" x="0" y="0" transform="translate(0 -218.09)" xlink:href="#path3660"/><use id="use3694" width="744.094" height="1052.362" x="0" y="0" transform="translate(0 -254.43)" xlink:href="#path3660"/><use id="use3696" width="744.094" height="1052.362" x="0" y="0" transform="translate(0 -290.78)" xlink:href="#path3660"/><use id="use3698" width="744.094" height="1052.362" x="0" y="0" transform="translate(0 -327.13)" xlink:href="#path3660"/><use id="use3700" width="744.094" height="1052.362" x="0" y="0" transform="translate(0 -363.48)" xlink:href="#path3660"/><use id="use3702" width="744.094" height="1052.362" x="0" y="0" transform="translate(0 36.348)" xlink:href="#path3660"/><use id="use3704" width="744.094" height="1052.362" x="0" y="0" transform="translate(0 109.04)" xlink:href="#path3660"/><use id="use3706" width="744.094" height="1052.362" x="0" y="0" transform="translate(0 145.39)" xlink:href="#path3660"/><use id="use3708" width="744.094" height="1052.362" x="0" y="0" transform="translate(0 181.74)" xlink:href="#path3660"/><use id="use3710" width="744.094" height="1052.362" x="0" y="0" transform="translate(0 218.09)" xlink:href="#path3660"/><use id="use3712" width="744.094" height="1052.362" x="0" y="0" transform="translate(0 254.43)" xlink:href="#path3660"/><use id="use3714" width="744.094" height="1052.362" x="0" y="0" transform="translate(0 290.78)" xlink:href="#path3660"/><use id="use3716" width="744.094" height="1052.362" x="0" y="0" transform="translate(0 327.13)" xlink:href="#path3660"/><use id="use3718" width="744.094" height="1052.362" x="0" y="0" transform="translate(0 399.83)" xlink:href="#path3660"/><use id="use3720" width="744.094" height="1052.362" x="0" y="0" transform="translate(0 72.696)" xlink:href="#path3660"/><use id="use3722" width="744.094" height="1052.362" x="0" y="0" transform="translate(0 363.48)" xlink:href="#path3660"/></g></g></g><metadata/></svg>