<?xml version="1.0" encoding="iso-8859-1"?>
<!-- Uploaded to: SVG Repo, www.svgrepo.com, Generator: SVG Repo Mixer Tools -->
<svg version="1.1" id="Layer_1" xmlns="http://www.w3.org/2000/svg" xmlns:xlink="http://www.w3.org/1999/xlink" 
	 viewBox="0 0 512 512" xml:space="preserve">
<polygon style="fill:#E2804F;" points="204.8,345.017 153.602,256.318 204.8,167.618 307.197,167.618 358.396,256.318 
	307.197,345.017 "/>
<g>
	<circle style="fill:#D4E4AC;" cx="480.158" cy="255.998" r="24.022"/>
	<circle style="fill:#D4E4AC;" cx="31.843" cy="255.998" r="24.022"/>
</g>
<g>
	<circle style="fill:#F2BF7E;" cx="414.499" cy="97.497" r="24.022"/>
	<circle style="fill:#F2BF7E;" cx="97.497" cy="414.5" r="24.022"/>
</g>
<g>
	<circle style="fill:#D4E4AC;" cx="255.998" cy="31.844" r="24.022"/>
	<circle style="fill:#D4E4AC;" cx="255.998" cy="480.158" r="24.022"/>
</g>
<g>
	<circle style="fill:#F2BF7E;" cx="97.497" cy="97.497" r="24.022"/>
	<circle style="fill:#F2BF7E;" cx="414.499" cy="414.5" r="24.022"/>
</g>
<path d="M480.156,224.157c-15.158,0-27.867,10.649-31.062,24.856h-85.89l-32.748-56.403l67.745-67.744
	c4.878,2.917,10.469,4.475,16.301,4.475c8.505,0,16.501-3.313,22.516-9.327c6.015-6.015,9.327-14.011,9.327-22.517
	c0-8.505-3.313-16.501-9.327-22.515c0,0,0,0-0.001-0.001c-6.014-6.014-14.01-9.327-22.515-9.327c-8.506,0-16.502,3.312-22.517,9.327
	c-10.505,10.506-12.118,26.587-4.844,38.809l-64.815,64.816l-10.62-18.292h-48.083V62.757c13.888-3.426,24.22-15.983,24.22-30.914
	c-0.001-17.558-14.286-31.842-31.844-31.842s-31.843,14.284-31.843,31.843c0,14.786,10.13,27.248,23.812,30.815v97.654h-47.673
	l-10.621,18.293l-64.808-64.808c2.917-4.877,4.475-10.47,4.475-16.301c0-8.505-3.313-16.501-9.327-22.516
	c-6.015-6.015-14.011-9.327-22.517-9.327c-8.505,0-16.501,3.313-22.515,9.327c0,0,0,0-0.001,0.001
	c-6.014,6.014-9.327,14.01-9.327,22.515c0,8.506,3.312,16.502,9.327,22.516c6.015,6.015,14.011,9.327,22.516,9.327
	c5.831,0,11.422-1.558,16.301-4.475l67.746,67.745l-32.749,56.402h-85.89C59.71,234.804,47,224.156,31.842,224.156
	C14.284,224.157,0,238.441,0,255.999s14.284,31.843,31.843,31.843c14.554,0,26.85-9.819,30.635-23.177H149.4l31.909,54.955
	l-67.52,67.52c-12.222-7.274-28.301-5.662-38.808,4.844c-6.015,6.015-9.327,14.011-9.327,22.517c0,8.505,3.313,16.501,9.327,22.515
	c6.015,6.015,14.011,9.327,22.516,9.327c8.506,0,16.502-3.312,22.516-9.327c6.015-6.015,9.327-14.011,9.327-22.516
	c0-5.831-1.558-11.422-4.475-16.301l64.574-64.574l10.855,18.695h47.673v97.019c-13.684,3.568-23.812,16.03-23.812,30.815
	c0,17.558,14.284,31.844,31.843,31.844s31.843-14.285,31.843-31.844c0-14.932-10.332-27.489-24.22-30.914v-96.92h48.083
	l10.854-18.694l64.583,64.583c-7.274,12.221-5.662,28.303,4.844,38.808c6.015,6.015,14.011,9.327,22.517,9.327
	c8.505,0,16.501-3.313,22.515-9.327c6.015-6.015,9.327-14.011,9.327-22.516c0-8.506-3.312-16.502-9.327-22.517
	c-10.505-10.505-26.586-12.117-38.808-4.843l-67.519-67.52l31.909-54.956h86.922c3.785,13.358,16.08,23.177,30.635,23.177
	c17.558,0,31.844-14.284,31.844-31.843S497.714,224.157,480.156,224.157z M403.054,86.05c3.058-3.059,7.123-4.743,11.449-4.743
	c4.324,0,8.39,1.684,11.448,4.742l0.001,0.001c3.058,3.058,4.742,7.123,4.742,11.447c0,4.325-1.684,8.391-4.743,11.45
	c-3.058,3.058-7.123,4.742-11.448,4.742c-4.325,0-8.391-1.684-11.449-4.742C396.741,102.633,396.741,92.362,403.054,86.05z
	 M108.944,108.945c-3.058,3.059-7.123,4.743-11.449,4.743c-4.324,0-8.39-1.684-11.447-4.743c-3.059-3.058-4.743-7.123-4.743-11.449
	c0-4.324,1.684-8.39,4.742-11.447l0.001-0.001c3.058-3.058,7.123-4.742,11.447-4.742c4.325,0,8.391,1.684,11.45,4.743
	c3.058,3.058,4.742,7.123,4.742,11.447C113.687,101.822,112.003,105.888,108.944,108.945z M31.843,272.19
	c-8.927,0-16.19-7.263-16.19-16.19s7.263-16.19,16.19-16.19s16.19,7.263,16.19,16.19S40.77,272.19,31.843,272.19z M108.944,425.95
	c-3.058,3.059-7.123,4.743-11.449,4.743c-4.324,0-8.39-1.684-11.449-4.743c-3.058-3.058-4.742-7.123-4.742-11.447
	c0-4.325,1.684-8.391,4.743-11.449c3.156-3.156,7.302-4.734,11.447-4.734c4.147,0,8.292,1.579,11.449,4.734
	c3.059,3.058,4.743,7.123,4.743,11.449C113.687,418.826,112.003,422.893,108.944,425.95z M403.054,403.054
	c6.313-6.312,16.585-6.312,22.896,0c3.059,3.058,4.743,7.123,4.743,11.449c0,4.324-1.684,8.39-4.743,11.449
	c-3.058,3.058-7.123,4.742-11.448,4.742c-4.325,0-8.391-1.684-11.449-4.743C396.742,419.638,396.741,409.368,403.054,403.054z
	 M239.81,31.844c0-8.927,7.263-16.19,16.19-16.19s16.19,7.263,16.19,16.19s-7.263,16.19-16.19,16.19S239.81,40.77,239.81,31.844z
	 M272.189,480.156c0,8.928-7.263,16.191-16.19,16.191c-8.927,0-16.19-7.263-16.19-16.191c0-8.927,7.263-16.19,16.19-16.19
	C264.926,463.966,272.189,471.229,272.189,480.156z M302.692,336.669h-93.385l-46.654-80.352l46.654-80.352h93.385l46.654,80.352
	L302.692,336.669z M480.156,272.19c-8.927,0-16.19-7.263-16.19-16.19s7.263-16.19,16.19-16.19c8.928,0,16.191,7.263,16.191,16.19
	S489.084,272.19,480.156,272.19z"/>
<g>
	<rect x="247.973" y="249.017" style="fill:#FFFFFF;" width="16.696" height="15.653"/>
	<rect x="271.974" y="249.017" style="fill:#FFFFFF;" width="15.653" height="15.653"/>
	<rect x="223.972" y="249.017" style="fill:#FFFFFF;" width="16.696" height="15.653"/>
</g>
</svg>